%TF.GenerationSoftware,KiCad,Pcbnew,(6.0.0)*%
%TF.CreationDate,2022-03-13T19:16:45-04:00*%
%TF.ProjectId,esp23 i3 heat thermostat,65737032-3320-4693-9320-686561742074,rev?*%
%TF.SameCoordinates,Original*%
%TF.FileFunction,Soldermask,Bot*%
%TF.FilePolarity,Negative*%
%FSLAX46Y46*%
G04 Gerber Fmt 4.6, Leading zero omitted, Abs format (unit mm)*
G04 Created by KiCad (PCBNEW (6.0.0)) date 2022-03-13 19:16:45*
%MOMM*%
%LPD*%
G01*
G04 APERTURE LIST*
G04 Aperture macros list*
%AMRoundRect*
0 Rectangle with rounded corners*
0 $1 Rounding radius*
0 $2 $3 $4 $5 $6 $7 $8 $9 X,Y pos of 4 corners*
0 Add a 4 corners polygon primitive as box body*
4,1,4,$2,$3,$4,$5,$6,$7,$8,$9,$2,$3,0*
0 Add four circle primitives for the rounded corners*
1,1,$1+$1,$2,$3*
1,1,$1+$1,$4,$5*
1,1,$1+$1,$6,$7*
1,1,$1+$1,$8,$9*
0 Add four rect primitives between the rounded corners*
20,1,$1+$1,$2,$3,$4,$5,0*
20,1,$1+$1,$4,$5,$6,$7,0*
20,1,$1+$1,$6,$7,$8,$9,0*
20,1,$1+$1,$8,$9,$2,$3,0*%
G04 Aperture macros list end*
%ADD10R,1.700000X1.700000*%
%ADD11O,1.700000X1.700000*%
%ADD12R,1.524000X2.524000*%
%ADD13O,1.524000X2.524000*%
%ADD14RoundRect,0.250000X0.650000X1.550000X-0.650000X1.550000X-0.650000X-1.550000X0.650000X-1.550000X0*%
%ADD15O,1.800000X3.600000*%
%ADD16C,3.200000*%
%ADD17C,1.700000*%
%ADD18R,1.600000X1.600000*%
%ADD19O,1.600000X1.600000*%
%ADD20O,3.200000X3.200000*%
%ADD21R,1.800000X1.800000*%
%ADD22O,1.800000X1.800000*%
%ADD23C,1.600000*%
%ADD24R,2.500000X1.800000*%
%ADD25R,0.900000X2.000000*%
%ADD26R,2.000000X0.900000*%
%ADD27R,5.000000X5.000000*%
%ADD28R,2.540000X2.540000*%
%ADD29C,2.540000*%
%ADD30RoundRect,0.225000X-0.250000X0.225000X-0.250000X-0.225000X0.250000X-0.225000X0.250000X0.225000X0*%
G04 APERTURE END LIST*
D10*
%TO.C,J2*%
X130800000Y-111252000D03*
D11*
X128260000Y-111252000D03*
X125720000Y-111252000D03*
X123180000Y-111252000D03*
%TD*%
D12*
%TO.C,LED7*%
X97100000Y-76240000D03*
D13*
X99640000Y-76240000D03*
X102180000Y-76240000D03*
X104720000Y-76240000D03*
X107260000Y-76240000D03*
X107260000Y-61000000D03*
X104720000Y-61000000D03*
X102180000Y-61000000D03*
X99640000Y-61000000D03*
X97100000Y-61000000D03*
%TD*%
D14*
%TO.C,J1*%
X151189000Y-56526500D03*
D15*
X147689000Y-56526500D03*
X144189000Y-56526500D03*
X140689000Y-56526500D03*
X137189000Y-56526500D03*
X133689000Y-56526500D03*
%TD*%
D16*
%TO.C,REF\u002A\u002A*%
X53594000Y-51562000D03*
%TD*%
D17*
%TO.C,SW4*%
X115500000Y-59550000D03*
X122000000Y-59550000D03*
X115500000Y-64050000D03*
X122000000Y-64050000D03*
%TD*%
D18*
%TO.C,U2*%
X129550000Y-74437000D03*
D19*
X129550000Y-76977000D03*
X129550000Y-79517000D03*
X137170000Y-79517000D03*
X137170000Y-76977000D03*
X137170000Y-74437000D03*
%TD*%
D20*
%TO.C,Q2*%
X156704000Y-75692000D03*
D21*
X145604000Y-73152000D03*
D22*
X145604000Y-75692000D03*
X145604000Y-78232000D03*
%TD*%
D20*
%TO.C,Q1*%
X156704000Y-67056000D03*
D21*
X145604000Y-64516000D03*
D22*
X145604000Y-67056000D03*
X145604000Y-69596000D03*
%TD*%
D12*
%TO.C,LED6*%
X83900000Y-103240000D03*
D13*
X86440000Y-103240000D03*
X88980000Y-103240000D03*
X91520000Y-103240000D03*
X94060000Y-103240000D03*
X94060000Y-88000000D03*
X91520000Y-88000000D03*
X88980000Y-88000000D03*
X86440000Y-88000000D03*
X83900000Y-88000000D03*
%TD*%
D18*
%TO.C,U3*%
X140218000Y-81803000D03*
D19*
X140218000Y-84343000D03*
X140218000Y-86883000D03*
X147838000Y-86883000D03*
X147838000Y-84343000D03*
X147838000Y-81803000D03*
%TD*%
D12*
%TO.C,LED8*%
X97100000Y-103240000D03*
D13*
X99640000Y-103240000D03*
X102180000Y-103240000D03*
X104720000Y-103240000D03*
X107260000Y-103240000D03*
X107260000Y-88000000D03*
X104720000Y-88000000D03*
X102180000Y-88000000D03*
X99640000Y-88000000D03*
X97100000Y-88000000D03*
%TD*%
D12*
%TO.C,LED1*%
X57500000Y-76240000D03*
D13*
X60040000Y-76240000D03*
X62580000Y-76240000D03*
X65120000Y-76240000D03*
X67660000Y-76240000D03*
X67660000Y-61000000D03*
X65120000Y-61000000D03*
X62580000Y-61000000D03*
X60040000Y-61000000D03*
X57500000Y-61000000D03*
%TD*%
D12*
%TO.C,LED3*%
X70700000Y-76240000D03*
D13*
X73240000Y-76240000D03*
X75780000Y-76240000D03*
X78320000Y-76240000D03*
X80860000Y-76240000D03*
X80860000Y-61000000D03*
X78320000Y-61000000D03*
X75780000Y-61000000D03*
X73240000Y-61000000D03*
X70700000Y-61000000D03*
%TD*%
D17*
%TO.C,SW2*%
X131500000Y-66380000D03*
X138000000Y-66380000D03*
X131500000Y-70880000D03*
X138000000Y-70880000D03*
%TD*%
D12*
%TO.C,LED5*%
X83900000Y-76240000D03*
D13*
X86440000Y-76240000D03*
X88980000Y-76240000D03*
X91520000Y-76240000D03*
X94060000Y-76240000D03*
X94060000Y-61000000D03*
X91520000Y-61000000D03*
X88980000Y-61000000D03*
X86440000Y-61000000D03*
X83900000Y-61000000D03*
%TD*%
D16*
%TO.C,REF\u002A\u002A*%
X157480000Y-109474000D03*
%TD*%
D12*
%TO.C,LED2*%
X57500000Y-103240000D03*
D13*
X60040000Y-103240000D03*
X62580000Y-103240000D03*
X65120000Y-103240000D03*
X67660000Y-103240000D03*
X67660000Y-88000000D03*
X65120000Y-88000000D03*
X62580000Y-88000000D03*
X60040000Y-88000000D03*
X57500000Y-88000000D03*
%TD*%
D12*
%TO.C,LED4*%
X70700000Y-103240000D03*
D13*
X73240000Y-103240000D03*
X75780000Y-103240000D03*
X78320000Y-103240000D03*
X80860000Y-103240000D03*
X80860000Y-88000000D03*
X78320000Y-88000000D03*
X75780000Y-88000000D03*
X73240000Y-88000000D03*
X70700000Y-88000000D03*
%TD*%
D16*
%TO.C,REF\u002A\u002A*%
X157480000Y-51562000D03*
%TD*%
D17*
%TO.C,SW3*%
X115500000Y-73200000D03*
X122000000Y-73200000D03*
X115500000Y-77700000D03*
X122000000Y-77700000D03*
%TD*%
D16*
%TO.C,REF\u002A\u002A*%
X53594000Y-109474000D03*
%TD*%
D23*
%TO.C,C5*%
X115316000Y-52763395D03*
D18*
X115316000Y-55263395D03*
%TD*%
D17*
%TO.C,SW5*%
X115500000Y-86945000D03*
X122000000Y-86945000D03*
X115500000Y-91445000D03*
X122000000Y-91445000D03*
%TD*%
D10*
%TO.C,J4*%
X153862000Y-82311000D03*
D11*
X156402000Y-82311000D03*
X153862000Y-84851000D03*
X156402000Y-84851000D03*
X153862000Y-87391000D03*
X156402000Y-87391000D03*
%TD*%
D18*
%TO.C,C6*%
X134559113Y-85598000D03*
D23*
X132559113Y-85598000D03*
%TD*%
D24*
%TO.C,D3*%
X125000000Y-58166000D03*
X129000000Y-58166000D03*
%TD*%
%TO.C,D6*%
X122904000Y-51054000D03*
X118904000Y-51054000D03*
%TD*%
%TO.C,D5*%
X129000000Y-61722000D03*
X125000000Y-61722000D03*
%TD*%
D25*
%TO.C,U4*%
X152273000Y-107814000D03*
X151003000Y-107814000D03*
X149733000Y-107814000D03*
X148463000Y-107814000D03*
X147193000Y-107814000D03*
X145923000Y-107814000D03*
X144653000Y-107814000D03*
X143383000Y-107814000D03*
X142113000Y-107814000D03*
X140843000Y-107814000D03*
X139573000Y-107814000D03*
X138303000Y-107814000D03*
X137033000Y-107814000D03*
X135763000Y-107814000D03*
D26*
X134763000Y-105029000D03*
X134763000Y-103759000D03*
X134763000Y-102489000D03*
X134763000Y-101219000D03*
X134763000Y-99949000D03*
X134763000Y-98679000D03*
X134763000Y-97409000D03*
X134763000Y-96139000D03*
X134763000Y-94869000D03*
X134763000Y-93599000D03*
D25*
X135763000Y-90814000D03*
X137033000Y-90814000D03*
X138303000Y-90814000D03*
X139573000Y-90814000D03*
X140843000Y-90814000D03*
X142113000Y-90814000D03*
X143383000Y-90814000D03*
X144653000Y-90814000D03*
X145923000Y-90814000D03*
X147193000Y-90814000D03*
X148463000Y-90814000D03*
X149733000Y-90814000D03*
X151003000Y-90814000D03*
X152273000Y-90814000D03*
D27*
X144773000Y-100314000D03*
%TD*%
D24*
%TO.C,D4*%
X118904000Y-54610000D03*
X122904000Y-54610000D03*
%TD*%
D28*
%TO.C,U6*%
X107950000Y-52070000D03*
D29*
X107950000Y-69850000D03*
X67310000Y-69850000D03*
X67310000Y-52070000D03*
%TD*%
D30*
%TO.C,C7*%
X158750000Y-84087000D03*
X158750000Y-82537000D03*
%TD*%
M02*
