%FSLAX45Y45*%
G04 Gerber Fmt 4.5, Leading zero omitted, Abs format (unit mm)*
G04 Created by KiCad (PCBNEW (6.0.0)) date 2022-03-13 19:16:48*
%MOMM*%
%LPD*%
G01*
G04 APERTURE LIST*
%TA.AperFunction,Profile*%
%ADD10C,0.100000*%
%TD*%
%ADD11C,0.200000*%
%ADD12C,0.320000*%
G04 APERTURE END LIST*
D10*
X5359400Y-4800600D02*
G75*
G03*
X5003800Y-5156200I0J-355600D01*
G01*
X16103600Y-10947400D02*
X16103600Y-5156200D01*
X16103600Y-5156200D02*
G75*
G03*
X15748000Y-4800600I-355600J0D01*
G01*
X15748000Y-11303000D02*
G75*
G03*
X16103600Y-10947400I16581J339019D01*
G01*
X15748000Y-4800600D02*
X5359400Y-4800600D01*
X5359400Y-11303000D02*
X15748000Y-11303000D01*
X5003800Y-5156200D02*
X5003800Y-10947400D01*
X5003800Y-10947400D02*
G75*
G03*
X5359400Y-11303000I355600J0D01*
G01*
D11*
D12*
X5199400Y-4996200D02*
X5519400Y-5316200D01*
X5519400Y-4996200D02*
X5199400Y-5316200D01*
X5199400Y-10787400D02*
X5519400Y-11107400D01*
X5519400Y-10787400D02*
X5199400Y-11107400D01*
X15510400Y-6545600D02*
X15830400Y-6865600D01*
X15830400Y-6545600D02*
X15510400Y-6865600D01*
X15510400Y-7409200D02*
X15830400Y-7729200D01*
X15830400Y-7409200D02*
X15510400Y-7729200D01*
X15588000Y-4996200D02*
X15908000Y-5316200D01*
X15908000Y-4996200D02*
X15588000Y-5316200D01*
X15588000Y-10787400D02*
X15908000Y-11107400D01*
X15908000Y-10787400D02*
X15588000Y-11107400D01*
D11*
X5256419Y-11618881D02*
X5256419Y-11418881D01*
X5304038Y-11418881D01*
X5332610Y-11428405D01*
X5351657Y-11447453D01*
X5361181Y-11466500D01*
X5370705Y-11504596D01*
X5370705Y-11533167D01*
X5361181Y-11571262D01*
X5351657Y-11590310D01*
X5332610Y-11609357D01*
X5304038Y-11618881D01*
X5256419Y-11618881D01*
X5456419Y-11618881D02*
X5456419Y-11485548D01*
X5456419Y-11523643D02*
X5465943Y-11504596D01*
X5475467Y-11495072D01*
X5494514Y-11485548D01*
X5513562Y-11485548D01*
X5580229Y-11618881D02*
X5580229Y-11485548D01*
X5580229Y-11418881D02*
X5570705Y-11428405D01*
X5580229Y-11437929D01*
X5589752Y-11428405D01*
X5580229Y-11418881D01*
X5580229Y-11437929D01*
X5704038Y-11618881D02*
X5684990Y-11609357D01*
X5675467Y-11590310D01*
X5675467Y-11418881D01*
X5808800Y-11618881D02*
X5789752Y-11609357D01*
X5780228Y-11590310D01*
X5780228Y-11418881D01*
X6037371Y-11618881D02*
X6037371Y-11418881D01*
X6104038Y-11561738D01*
X6170705Y-11418881D01*
X6170705Y-11618881D01*
X6351657Y-11618881D02*
X6351657Y-11514119D01*
X6342133Y-11495072D01*
X6323086Y-11485548D01*
X6284990Y-11485548D01*
X6265943Y-11495072D01*
X6351657Y-11609357D02*
X6332609Y-11618881D01*
X6284990Y-11618881D01*
X6265943Y-11609357D01*
X6256419Y-11590310D01*
X6256419Y-11571262D01*
X6265943Y-11552215D01*
X6284990Y-11542691D01*
X6332609Y-11542691D01*
X6351657Y-11533167D01*
X6446895Y-11485548D02*
X6446895Y-11685548D01*
X6446895Y-11495072D02*
X6465943Y-11485548D01*
X6504038Y-11485548D01*
X6523086Y-11495072D01*
X6532609Y-11504596D01*
X6542133Y-11523643D01*
X6542133Y-11580786D01*
X6532609Y-11599834D01*
X6523086Y-11609357D01*
X6504038Y-11618881D01*
X6465943Y-11618881D01*
X6446895Y-11609357D01*
X6627848Y-11599834D02*
X6637371Y-11609357D01*
X6627848Y-11618881D01*
X6618324Y-11609357D01*
X6627848Y-11599834D01*
X6627848Y-11618881D01*
X6627848Y-11495072D02*
X6637371Y-11504596D01*
X6627848Y-11514119D01*
X6618324Y-11504596D01*
X6627848Y-11495072D01*
X6627848Y-11514119D01*
X4798800Y-11848405D02*
X4998800Y-12048405D01*
X4998800Y-11848405D02*
X4798800Y-12048405D01*
X5237371Y-11838881D02*
X5361181Y-11838881D01*
X5294514Y-11915072D01*
X5323086Y-11915072D01*
X5342133Y-11924596D01*
X5351657Y-11934119D01*
X5361181Y-11953167D01*
X5361181Y-12000786D01*
X5351657Y-12019834D01*
X5342133Y-12029357D01*
X5323086Y-12038881D01*
X5265943Y-12038881D01*
X5246895Y-12029357D01*
X5237371Y-12019834D01*
X5446895Y-12019834D02*
X5456419Y-12029357D01*
X5446895Y-12038881D01*
X5437371Y-12029357D01*
X5446895Y-12019834D01*
X5446895Y-12038881D01*
X5532610Y-11857929D02*
X5542133Y-11848405D01*
X5561181Y-11838881D01*
X5608800Y-11838881D01*
X5627848Y-11848405D01*
X5637371Y-11857929D01*
X5646895Y-11876977D01*
X5646895Y-11896024D01*
X5637371Y-11924596D01*
X5523086Y-12038881D01*
X5646895Y-12038881D01*
X5770705Y-11838881D02*
X5789752Y-11838881D01*
X5808800Y-11848405D01*
X5818324Y-11857929D01*
X5827848Y-11876977D01*
X5837371Y-11915072D01*
X5837371Y-11962691D01*
X5827848Y-12000786D01*
X5818324Y-12019834D01*
X5808800Y-12029357D01*
X5789752Y-12038881D01*
X5770705Y-12038881D01*
X5751657Y-12029357D01*
X5742133Y-12019834D01*
X5732609Y-12000786D01*
X5723086Y-11962691D01*
X5723086Y-11915072D01*
X5732609Y-11876977D01*
X5742133Y-11857929D01*
X5751657Y-11848405D01*
X5770705Y-11838881D01*
X5961181Y-11838881D02*
X5980228Y-11838881D01*
X5999276Y-11848405D01*
X6008800Y-11857929D01*
X6018324Y-11876977D01*
X6027848Y-11915072D01*
X6027848Y-11962691D01*
X6018324Y-12000786D01*
X6008800Y-12019834D01*
X5999276Y-12029357D01*
X5980228Y-12038881D01*
X5961181Y-12038881D01*
X5942133Y-12029357D01*
X5932609Y-12019834D01*
X5923086Y-12000786D01*
X5913562Y-11962691D01*
X5913562Y-11915072D01*
X5923086Y-11876977D01*
X5932609Y-11857929D01*
X5942133Y-11848405D01*
X5961181Y-11838881D01*
X6113562Y-12038881D02*
X6113562Y-11905548D01*
X6113562Y-11924596D02*
X6123086Y-11915072D01*
X6142133Y-11905548D01*
X6170705Y-11905548D01*
X6189752Y-11915072D01*
X6199276Y-11934119D01*
X6199276Y-12038881D01*
X6199276Y-11934119D02*
X6208800Y-11915072D01*
X6227848Y-11905548D01*
X6256419Y-11905548D01*
X6275467Y-11915072D01*
X6284990Y-11934119D01*
X6284990Y-12038881D01*
X6380228Y-12038881D02*
X6380228Y-11905548D01*
X6380228Y-11924596D02*
X6389752Y-11915072D01*
X6408800Y-11905548D01*
X6437371Y-11905548D01*
X6456419Y-11915072D01*
X6465943Y-11934119D01*
X6465943Y-12038881D01*
X6465943Y-11934119D02*
X6475467Y-11915072D01*
X6494514Y-11905548D01*
X6523086Y-11905548D01*
X6542133Y-11915072D01*
X6551657Y-11934119D01*
X6551657Y-12038881D01*
X6942133Y-11829357D02*
X6770705Y-12086500D01*
X7199276Y-11838881D02*
X7218324Y-11838881D01*
X7237371Y-11848405D01*
X7246895Y-11857929D01*
X7256419Y-11876977D01*
X7265943Y-11915072D01*
X7265943Y-11962691D01*
X7256419Y-12000786D01*
X7246895Y-12019834D01*
X7237371Y-12029357D01*
X7218324Y-12038881D01*
X7199276Y-12038881D01*
X7180228Y-12029357D01*
X7170705Y-12019834D01*
X7161181Y-12000786D01*
X7151657Y-11962691D01*
X7151657Y-11915072D01*
X7161181Y-11876977D01*
X7170705Y-11857929D01*
X7180228Y-11848405D01*
X7199276Y-11838881D01*
X7351657Y-12019834D02*
X7361181Y-12029357D01*
X7351657Y-12038881D01*
X7342133Y-12029357D01*
X7351657Y-12019834D01*
X7351657Y-12038881D01*
X7551657Y-12038881D02*
X7437371Y-12038881D01*
X7494514Y-12038881D02*
X7494514Y-11838881D01*
X7475467Y-11867453D01*
X7456419Y-11886500D01*
X7437371Y-11896024D01*
X7627848Y-11857929D02*
X7637371Y-11848405D01*
X7656419Y-11838881D01*
X7704038Y-11838881D01*
X7723086Y-11848405D01*
X7732609Y-11857929D01*
X7742133Y-11876977D01*
X7742133Y-11896024D01*
X7732609Y-11924596D01*
X7618324Y-12038881D01*
X7742133Y-12038881D01*
X7913562Y-11838881D02*
X7875467Y-11838881D01*
X7856419Y-11848405D01*
X7846895Y-11857929D01*
X7827848Y-11886500D01*
X7818324Y-11924596D01*
X7818324Y-12000786D01*
X7827848Y-12019834D01*
X7837371Y-12029357D01*
X7856419Y-12038881D01*
X7894514Y-12038881D01*
X7913562Y-12029357D01*
X7923086Y-12019834D01*
X7932609Y-12000786D01*
X7932609Y-11953167D01*
X7923086Y-11934119D01*
X7913562Y-11924596D01*
X7894514Y-11915072D01*
X7856419Y-11915072D01*
X7837371Y-11924596D01*
X7827848Y-11934119D01*
X7818324Y-11953167D01*
X8056419Y-11838881D02*
X8075467Y-11838881D01*
X8094514Y-11848405D01*
X8104038Y-11857929D01*
X8113562Y-11876977D01*
X8123086Y-11915072D01*
X8123086Y-11962691D01*
X8113562Y-12000786D01*
X8104038Y-12019834D01*
X8094514Y-12029357D01*
X8075467Y-12038881D01*
X8056419Y-12038881D01*
X8037371Y-12029357D01*
X8027848Y-12019834D01*
X8018324Y-12000786D01*
X8008800Y-11962691D01*
X8008800Y-11915072D01*
X8018324Y-11876977D01*
X8027848Y-11857929D01*
X8037371Y-11848405D01*
X8056419Y-11838881D01*
X8199276Y-11838881D02*
X8199276Y-11876977D01*
X8275467Y-11838881D02*
X8275467Y-11876977D01*
X8570705Y-12115072D02*
X8561181Y-12105548D01*
X8542133Y-12076977D01*
X8532610Y-12057929D01*
X8523086Y-12029357D01*
X8513562Y-11981738D01*
X8513562Y-11943643D01*
X8523086Y-11896024D01*
X8532610Y-11867453D01*
X8542133Y-11848405D01*
X8561181Y-11819834D01*
X8570705Y-11810310D01*
X8732610Y-11838881D02*
X8694514Y-11838881D01*
X8675467Y-11848405D01*
X8665943Y-11857929D01*
X8646895Y-11886500D01*
X8637371Y-11924596D01*
X8637371Y-12000786D01*
X8646895Y-12019834D01*
X8656419Y-12029357D01*
X8675467Y-12038881D01*
X8713562Y-12038881D01*
X8732610Y-12029357D01*
X8742133Y-12019834D01*
X8751657Y-12000786D01*
X8751657Y-11953167D01*
X8742133Y-11934119D01*
X8732610Y-11924596D01*
X8713562Y-11915072D01*
X8675467Y-11915072D01*
X8656419Y-11924596D01*
X8646895Y-11934119D01*
X8637371Y-11953167D01*
X8989752Y-12038881D02*
X8989752Y-11838881D01*
X9075467Y-12038881D02*
X9075467Y-11934119D01*
X9065943Y-11915072D01*
X9046895Y-11905548D01*
X9018324Y-11905548D01*
X8999276Y-11915072D01*
X8989752Y-11924596D01*
X9199276Y-12038881D02*
X9180229Y-12029357D01*
X9170705Y-12019834D01*
X9161181Y-12000786D01*
X9161181Y-11943643D01*
X9170705Y-11924596D01*
X9180229Y-11915072D01*
X9199276Y-11905548D01*
X9227848Y-11905548D01*
X9246895Y-11915072D01*
X9256419Y-11924596D01*
X9265943Y-11943643D01*
X9265943Y-12000786D01*
X9256419Y-12019834D01*
X9246895Y-12029357D01*
X9227848Y-12038881D01*
X9199276Y-12038881D01*
X9380229Y-12038881D02*
X9361181Y-12029357D01*
X9351657Y-12010310D01*
X9351657Y-11838881D01*
X9532610Y-12029357D02*
X9513562Y-12038881D01*
X9475467Y-12038881D01*
X9456419Y-12029357D01*
X9446895Y-12010310D01*
X9446895Y-11934119D01*
X9456419Y-11915072D01*
X9475467Y-11905548D01*
X9513562Y-11905548D01*
X9532610Y-11915072D01*
X9542133Y-11934119D01*
X9542133Y-11953167D01*
X9446895Y-11972215D01*
X9618324Y-12029357D02*
X9637371Y-12038881D01*
X9675467Y-12038881D01*
X9694514Y-12029357D01*
X9704038Y-12010310D01*
X9704038Y-12000786D01*
X9694514Y-11981738D01*
X9675467Y-11972215D01*
X9646895Y-11972215D01*
X9627848Y-11962691D01*
X9618324Y-11943643D01*
X9618324Y-11934119D01*
X9627848Y-11915072D01*
X9646895Y-11905548D01*
X9675467Y-11905548D01*
X9694514Y-11915072D01*
X9770705Y-12115072D02*
X9780229Y-12105548D01*
X9799276Y-12076977D01*
X9808800Y-12057929D01*
X9818324Y-12029357D01*
X9827848Y-11981738D01*
X9827848Y-11943643D01*
X9818324Y-11896024D01*
X9808800Y-11867453D01*
X9799276Y-11848405D01*
X9780229Y-11819834D01*
X9770705Y-11810310D01*
X10132610Y-12115072D02*
X10123086Y-12105548D01*
X10104038Y-12076977D01*
X10094514Y-12057929D01*
X10084990Y-12029357D01*
X10075467Y-11981738D01*
X10075467Y-11943643D01*
X10084990Y-11896024D01*
X10094514Y-11867453D01*
X10104038Y-11848405D01*
X10123086Y-11819834D01*
X10132610Y-11810310D01*
X10208800Y-11905548D02*
X10208800Y-12038881D01*
X10208800Y-11924596D02*
X10218324Y-11915072D01*
X10237371Y-11905548D01*
X10265943Y-11905548D01*
X10284990Y-11915072D01*
X10294514Y-11934119D01*
X10294514Y-12038881D01*
X10418324Y-12038881D02*
X10399276Y-12029357D01*
X10389752Y-12019834D01*
X10380229Y-12000786D01*
X10380229Y-11943643D01*
X10389752Y-11924596D01*
X10399276Y-11915072D01*
X10418324Y-11905548D01*
X10446895Y-11905548D01*
X10465943Y-11915072D01*
X10475467Y-11924596D01*
X10484990Y-11943643D01*
X10484990Y-12000786D01*
X10475467Y-12019834D01*
X10465943Y-12029357D01*
X10446895Y-12038881D01*
X10418324Y-12038881D01*
X10542133Y-11905548D02*
X10618324Y-11905548D01*
X10570705Y-11838881D02*
X10570705Y-12010310D01*
X10580229Y-12029357D01*
X10599276Y-12038881D01*
X10618324Y-12038881D01*
X10837371Y-11905548D02*
X10837371Y-12105548D01*
X10837371Y-11915072D02*
X10856419Y-11905548D01*
X10894514Y-11905548D01*
X10913562Y-11915072D01*
X10923086Y-11924596D01*
X10932610Y-11943643D01*
X10932610Y-12000786D01*
X10923086Y-12019834D01*
X10913562Y-12029357D01*
X10894514Y-12038881D01*
X10856419Y-12038881D01*
X10837371Y-12029357D01*
X11046895Y-12038881D02*
X11027848Y-12029357D01*
X11018324Y-12010310D01*
X11018324Y-11838881D01*
X11208800Y-12038881D02*
X11208800Y-11934119D01*
X11199276Y-11915072D01*
X11180229Y-11905548D01*
X11142133Y-11905548D01*
X11123086Y-11915072D01*
X11208800Y-12029357D02*
X11189752Y-12038881D01*
X11142133Y-12038881D01*
X11123086Y-12029357D01*
X11113562Y-12010310D01*
X11113562Y-11991262D01*
X11123086Y-11972215D01*
X11142133Y-11962691D01*
X11189752Y-11962691D01*
X11208800Y-11953167D01*
X11275467Y-11905548D02*
X11351657Y-11905548D01*
X11304038Y-11838881D02*
X11304038Y-12010310D01*
X11313562Y-12029357D01*
X11332609Y-12038881D01*
X11351657Y-12038881D01*
X11494514Y-12029357D02*
X11475467Y-12038881D01*
X11437371Y-12038881D01*
X11418324Y-12029357D01*
X11408800Y-12010310D01*
X11408800Y-11934119D01*
X11418324Y-11915072D01*
X11437371Y-11905548D01*
X11475467Y-11905548D01*
X11494514Y-11915072D01*
X11504038Y-11934119D01*
X11504038Y-11953167D01*
X11408800Y-11972215D01*
X11675467Y-12038881D02*
X11675467Y-11838881D01*
X11675467Y-12029357D02*
X11656419Y-12038881D01*
X11618324Y-12038881D01*
X11599276Y-12029357D01*
X11589752Y-12019834D01*
X11580228Y-12000786D01*
X11580228Y-11943643D01*
X11589752Y-11924596D01*
X11599276Y-11915072D01*
X11618324Y-11905548D01*
X11656419Y-11905548D01*
X11675467Y-11915072D01*
X11751657Y-12115072D02*
X11761181Y-12105548D01*
X11780228Y-12076977D01*
X11789752Y-12057929D01*
X11799276Y-12029357D01*
X11808800Y-11981738D01*
X11808800Y-11943643D01*
X11799276Y-11896024D01*
X11789752Y-11867453D01*
X11780228Y-11848405D01*
X11761181Y-11819834D01*
X11751657Y-11810310D01*
M02*
