M48
; DRILL file {KiCad (6.0.0)} date Sun Mar 13 19:16:47 2022
; FORMAT={-:-/ absolute / metric / decimal}
; #@! TF.CreationDate,2022-03-13T19:16:47-04:00
; #@! TF.GenerationSoftware,Kicad,Pcbnew,(6.0.0)
; #@! TF.FileFunction,Plated,1,2,PTH
FMAT,2
METRIC
; #@! TA.AperFunction,Plated,PTH,ViaDrill
T1C0.400
; #@! TA.AperFunction,Plated,PTH,ComponentDrill
T2C0.800
; #@! TA.AperFunction,Plated,PTH,ComponentDrill
T3C1.000
; #@! TA.AperFunction,Plated,PTH,ComponentDrill
T4C1.200
%
G90
G05
T1
X56.413Y-89.891
X58.674Y-89.408
X60.706Y-93.726
X62.58Y-78.39
X63.667Y-92.035
X65.024Y-94.996
X66.548Y-90.424
X67.831Y-93.485
X69.613Y-91.169
X70.816Y-92.76
X71.882Y-89.408
X74.168Y-94.234
X75.78Y-78.652
X77.233Y-91.931
X78.523Y-94.959
X79.773Y-90.407
X81.013Y-93.485
X82.296Y-91.186
X83.77Y-92.76
X85.353Y-89.399
X86.614Y-94.234
X88.98Y-78.66
X90.433Y-91.939
X91.731Y-94.959
X92.973Y-90.415
X94.221Y-93.485
X96.013Y-91.185
X97.067Y-92.671
X98.298Y-89.154
X99.314Y-94.234
X102.108Y-96.012
X102.18Y-78.668
X103.633Y-91.947
X104.939Y-94.959
X106.173Y-90.423
X107.429Y-93.485
X110.236Y-79.502
X110.49Y-81.026
X110.744Y-100.076
X111.07Y-78.668
X111.252Y-104.14
X111.506Y-79.756
X111.506Y-96.012
X111.506Y-101.6
X115.316Y-103.378
X115.316Y-104.394
X116.078Y-107.95
X119.38Y-102.362
X119.634Y-101.092
X119.888Y-99.822
X120.142Y-98.552
X120.396Y-93.472
X120.396Y-94.742
X120.396Y-96.012
X120.396Y-97.282
X124.968Y-106.426
X125.222Y-97.282
X125.73Y-96.266
X127.471Y-88.429
X128.016Y-96.52
X128.016Y-97.536
X130.302Y-90.424
X130.302Y-103.124
X130.81Y-107.95
X131.318Y-94.488
X132.08Y-92.456
X135.636Y-89.154
X136.615Y-88.429
X136.652Y-93.472
X137.16Y-110.236
X137.414Y-97.79
X138.176Y-97.028
X138.684Y-92.71
X139.7Y-103.886
X139.954Y-110.236
X140.716Y-92.456
X140.716Y-103.378
X141.986Y-92.456
X142.748Y-110.236
X143.256Y-92.456
X143.256Y-103.886
X144.526Y-89.154
X145.034Y-103.886
X145.796Y-92.71
X146.558Y-103.886
X149.606Y-92.964
X149.606Y-109.728
X150.876Y-97.028
X151.13Y-92.71
X151.13Y-109.941
X151.892Y-104.14
X152.552Y-111.354
X153.162Y-96.774
X153.213Y-103.022
X153.67Y-98.044
X155.956Y-92.964
T2
X57.5Y-61.0
X57.5Y-76.24
X57.5Y-88.0
X57.5Y-103.24
X60.04Y-61.0
X60.04Y-76.24
X60.04Y-88.0
X60.04Y-103.24
X62.58Y-61.0
X62.58Y-76.24
X62.58Y-88.0
X62.58Y-103.24
X65.12Y-61.0
X65.12Y-76.24
X65.12Y-88.0
X65.12Y-103.24
X67.66Y-61.0
X67.66Y-76.24
X67.66Y-88.0
X67.66Y-103.24
X70.7Y-61.0
X70.7Y-76.24
X70.7Y-88.0
X70.7Y-103.24
X73.24Y-61.0
X73.24Y-76.24
X73.24Y-88.0
X73.24Y-103.24
X75.78Y-61.0
X75.78Y-76.24
X75.78Y-88.0
X75.78Y-103.24
X78.32Y-61.0
X78.32Y-76.24
X78.32Y-88.0
X78.32Y-103.24
X80.86Y-61.0
X80.86Y-76.24
X80.86Y-88.0
X80.86Y-103.24
X83.9Y-61.0
X83.9Y-76.24
X83.9Y-88.0
X83.9Y-103.24
X86.44Y-61.0
X86.44Y-76.24
X86.44Y-88.0
X86.44Y-103.24
X88.98Y-61.0
X88.98Y-76.24
X88.98Y-88.0
X88.98Y-103.24
X91.52Y-61.0
X91.52Y-76.24
X91.52Y-88.0
X91.52Y-103.24
X94.06Y-61.0
X94.06Y-76.24
X94.06Y-88.0
X94.06Y-103.24
X97.1Y-61.0
X97.1Y-76.24
X97.1Y-88.0
X97.1Y-103.24
X99.64Y-61.0
X99.64Y-76.24
X99.64Y-88.0
X99.64Y-103.24
X102.18Y-61.0
X102.18Y-76.24
X102.18Y-88.0
X102.18Y-103.24
X104.72Y-61.0
X104.72Y-76.24
X104.72Y-88.0
X104.72Y-103.24
X107.26Y-61.0
X107.26Y-76.24
X107.26Y-88.0
X107.26Y-103.24
X115.316Y-52.763
X115.316Y-55.263
X129.55Y-74.437
X129.55Y-76.977
X129.55Y-79.517
X132.559Y-85.598
X134.559Y-85.598
X137.17Y-74.437
X137.17Y-76.977
X137.17Y-79.517
X140.218Y-81.803
X140.218Y-84.343
X140.218Y-86.883
X147.838Y-81.803
X147.838Y-84.343
X147.838Y-86.883
T3
X67.31Y-52.07
X67.31Y-69.85
X107.95Y-52.07
X107.95Y-69.85
X115.5Y-59.55
X115.5Y-64.05
X115.5Y-73.2
X115.5Y-77.7
X115.5Y-86.945
X115.5Y-91.445
X122.0Y-59.55
X122.0Y-64.05
X122.0Y-73.2
X122.0Y-77.7
X122.0Y-86.945
X122.0Y-91.445
X123.18Y-111.252
X125.72Y-111.252
X128.26Y-111.252
X130.8Y-111.252
X131.5Y-66.38
X131.5Y-70.88
X138.0Y-66.38
X138.0Y-70.88
X145.604Y-64.516
X145.604Y-67.056
X145.604Y-69.596
X145.604Y-73.152
X145.604Y-75.692
X145.604Y-78.232
X153.862Y-82.311
X153.862Y-84.851
X153.862Y-87.391
X156.402Y-82.311
X156.402Y-84.851
X156.402Y-87.391
T4
X133.689Y-56.526
X137.189Y-56.526
X140.689Y-56.526
X144.189Y-56.526
X147.689Y-56.526
X151.189Y-56.526
T0
M30
