%TF.GenerationSoftware,KiCad,Pcbnew,(6.0.0)*%
%TF.CreationDate,2022-03-13T19:16:45-04:00*%
%TF.ProjectId,esp23 i3 heat thermostat,65737032-3320-4693-9320-686561742074,rev?*%
%TF.SameCoordinates,Original*%
%TF.FileFunction,Soldermask,Top*%
%TF.FilePolarity,Negative*%
%FSLAX46Y46*%
G04 Gerber Fmt 4.6, Leading zero omitted, Abs format (unit mm)*
G04 Created by KiCad (PCBNEW (6.0.0)) date 2022-03-13 19:16:45*
%MOMM*%
%LPD*%
G01*
G04 APERTURE LIST*
G04 Aperture macros list*
%AMRoundRect*
0 Rectangle with rounded corners*
0 $1 Rounding radius*
0 $2 $3 $4 $5 $6 $7 $8 $9 X,Y pos of 4 corners*
0 Add a 4 corners polygon primitive as box body*
4,1,4,$2,$3,$4,$5,$6,$7,$8,$9,$2,$3,0*
0 Add four circle primitives for the rounded corners*
1,1,$1+$1,$2,$3*
1,1,$1+$1,$4,$5*
1,1,$1+$1,$6,$7*
1,1,$1+$1,$8,$9*
0 Add four rect primitives between the rounded corners*
20,1,$1+$1,$2,$3,$4,$5,0*
20,1,$1+$1,$4,$5,$6,$7,0*
20,1,$1+$1,$6,$7,$8,$9,0*
20,1,$1+$1,$8,$9,$2,$3,0*%
G04 Aperture macros list end*
%ADD10R,1.700000X1.700000*%
%ADD11O,1.700000X1.700000*%
%ADD12R,1.524000X2.524000*%
%ADD13O,1.524000X2.524000*%
%ADD14RoundRect,0.200000X0.275000X-0.200000X0.275000X0.200000X-0.275000X0.200000X-0.275000X-0.200000X0*%
%ADD15RoundRect,0.250000X0.650000X1.550000X-0.650000X1.550000X-0.650000X-1.550000X0.650000X-1.550000X0*%
%ADD16O,1.800000X3.600000*%
%ADD17RoundRect,0.225000X-0.250000X0.225000X-0.250000X-0.225000X0.250000X-0.225000X0.250000X0.225000X0*%
%ADD18C,3.200000*%
%ADD19RoundRect,0.200000X0.200000X0.275000X-0.200000X0.275000X-0.200000X-0.275000X0.200000X-0.275000X0*%
%ADD20C,1.700000*%
%ADD21R,1.600000X1.600000*%
%ADD22O,1.600000X1.600000*%
%ADD23O,3.200000X3.200000*%
%ADD24R,1.800000X1.800000*%
%ADD25O,1.800000X1.800000*%
%ADD26RoundRect,0.200000X-0.200000X-0.275000X0.200000X-0.275000X0.200000X0.275000X-0.200000X0.275000X0*%
%ADD27RoundRect,0.200000X-0.275000X0.200000X-0.275000X-0.200000X0.275000X-0.200000X0.275000X0.200000X0*%
%ADD28RoundRect,0.225000X0.250000X-0.225000X0.250000X0.225000X-0.250000X0.225000X-0.250000X-0.225000X0*%
%ADD29RoundRect,0.218750X0.218750X0.256250X-0.218750X0.256250X-0.218750X-0.256250X0.218750X-0.256250X0*%
%ADD30R,1.500000X2.000000*%
%ADD31R,3.800000X2.000000*%
%ADD32RoundRect,0.218750X-0.218750X-0.256250X0.218750X-0.256250X0.218750X0.256250X-0.218750X0.256250X0*%
%ADD33RoundRect,0.137500X-0.862500X-0.137500X0.862500X-0.137500X0.862500X0.137500X-0.862500X0.137500X0*%
%ADD34C,1.600000*%
%ADD35R,2.540000X2.540000*%
%ADD36C,2.540000*%
G04 APERTURE END LIST*
D10*
%TO.C,J2*%
X130800000Y-111252000D03*
D11*
X128260000Y-111252000D03*
X125720000Y-111252000D03*
X123180000Y-111252000D03*
%TD*%
D12*
%TO.C,LED7*%
X97100000Y-76240000D03*
D13*
X99640000Y-76240000D03*
X102180000Y-76240000D03*
X104720000Y-76240000D03*
X107260000Y-76240000D03*
X107260000Y-61000000D03*
X104720000Y-61000000D03*
X102180000Y-61000000D03*
X99640000Y-61000000D03*
X97100000Y-61000000D03*
%TD*%
D14*
%TO.C,R15*%
X135890000Y-111823000D03*
X135890000Y-110173000D03*
%TD*%
D15*
%TO.C,J1*%
X151189000Y-56526500D03*
D16*
X147689000Y-56526500D03*
X144189000Y-56526500D03*
X140689000Y-56526500D03*
X137189000Y-56526500D03*
X133689000Y-56526500D03*
%TD*%
D17*
%TO.C,C9*%
X113538000Y-74663000D03*
X113538000Y-76213000D03*
%TD*%
D18*
%TO.C,REF\u002A\u002A*%
X53594000Y-51562000D03*
%TD*%
D17*
%TO.C,C8*%
X129540000Y-67805000D03*
X129540000Y-69355000D03*
%TD*%
D19*
%TO.C,R18*%
X153987000Y-92456000D03*
X152337000Y-92456000D03*
%TD*%
D20*
%TO.C,SW4*%
X115500000Y-59550000D03*
X122000000Y-59550000D03*
X115500000Y-64050000D03*
X122000000Y-64050000D03*
%TD*%
D21*
%TO.C,U2*%
X129550000Y-74437000D03*
D22*
X129550000Y-76977000D03*
X129550000Y-79517000D03*
X137170000Y-79517000D03*
X137170000Y-76977000D03*
X137170000Y-74437000D03*
%TD*%
D23*
%TO.C,Q2*%
X156704000Y-75692000D03*
D24*
X145604000Y-73152000D03*
D25*
X145604000Y-75692000D03*
X145604000Y-78232000D03*
%TD*%
D23*
%TO.C,Q1*%
X156704000Y-67056000D03*
D24*
X145604000Y-64516000D03*
D25*
X145604000Y-67056000D03*
X145604000Y-69596000D03*
%TD*%
D12*
%TO.C,LED6*%
X83900000Y-103240000D03*
D13*
X86440000Y-103240000D03*
X88980000Y-103240000D03*
X91520000Y-103240000D03*
X94060000Y-103240000D03*
X94060000Y-88000000D03*
X91520000Y-88000000D03*
X88980000Y-88000000D03*
X86440000Y-88000000D03*
X83900000Y-88000000D03*
%TD*%
D26*
%TO.C,R20*%
X126937000Y-87376000D03*
X128587000Y-87376000D03*
%TD*%
D27*
%TO.C,R1*%
X126492000Y-99759000D03*
X126492000Y-101409000D03*
%TD*%
D14*
%TO.C,R5*%
X138176000Y-83375000D03*
X138176000Y-81725000D03*
%TD*%
%TO.C,R16*%
X138684000Y-111823000D03*
X138684000Y-110173000D03*
%TD*%
%TO.C,R17*%
X141478000Y-111823000D03*
X141478000Y-110173000D03*
%TD*%
D21*
%TO.C,U3*%
X140218000Y-81803000D03*
D22*
X140218000Y-84343000D03*
X140218000Y-86883000D03*
X147838000Y-86883000D03*
X147838000Y-84343000D03*
X147838000Y-81803000D03*
%TD*%
D19*
%TO.C,R4*%
X129603000Y-72136000D03*
X127953000Y-72136000D03*
%TD*%
D14*
%TO.C,R9*%
X148336000Y-111823000D03*
X148336000Y-110173000D03*
%TD*%
D12*
%TO.C,LED8*%
X97100000Y-103240000D03*
D13*
X99640000Y-103240000D03*
X102180000Y-103240000D03*
X104720000Y-103240000D03*
X107260000Y-103240000D03*
X107260000Y-88000000D03*
X104720000Y-88000000D03*
X102180000Y-88000000D03*
X99640000Y-88000000D03*
X97100000Y-88000000D03*
%TD*%
D26*
%TO.C,R14*%
X132779000Y-90678000D03*
X134429000Y-90678000D03*
%TD*%
D28*
%TO.C,C3*%
X150368000Y-105931000D03*
X150368000Y-104381000D03*
%TD*%
D29*
%TO.C,D8*%
X128537500Y-104550000D03*
X126962500Y-104550000D03*
%TD*%
D17*
%TO.C,C1*%
X124968000Y-99809000D03*
X124968000Y-101359000D03*
%TD*%
D12*
%TO.C,LED1*%
X57500000Y-76240000D03*
D13*
X60040000Y-76240000D03*
X62580000Y-76240000D03*
X65120000Y-76240000D03*
X67660000Y-76240000D03*
X67660000Y-61000000D03*
X65120000Y-61000000D03*
X62580000Y-61000000D03*
X60040000Y-61000000D03*
X57500000Y-61000000D03*
%TD*%
D12*
%TO.C,LED3*%
X70700000Y-76240000D03*
D13*
X73240000Y-76240000D03*
X75780000Y-76240000D03*
X78320000Y-76240000D03*
X80860000Y-76240000D03*
X80860000Y-61000000D03*
X78320000Y-61000000D03*
X75780000Y-61000000D03*
X73240000Y-61000000D03*
X70700000Y-61000000D03*
%TD*%
D20*
%TO.C,SW2*%
X131500000Y-66380000D03*
X138000000Y-66380000D03*
X131500000Y-70880000D03*
X138000000Y-70880000D03*
%TD*%
D12*
%TO.C,LED5*%
X83900000Y-76240000D03*
D13*
X86440000Y-76240000D03*
X88980000Y-76240000D03*
X91520000Y-76240000D03*
X94060000Y-76240000D03*
X94060000Y-61000000D03*
X91520000Y-61000000D03*
X88980000Y-61000000D03*
X86440000Y-61000000D03*
X83900000Y-61000000D03*
%TD*%
D18*
%TO.C,REF\u002A\u002A*%
X157480000Y-109474000D03*
%TD*%
D30*
%TO.C,U5*%
X153656000Y-100940000D03*
X155956000Y-100940000D03*
D31*
X155956000Y-94640000D03*
D30*
X158256000Y-100940000D03*
%TD*%
D19*
%TO.C,R19*%
X128587000Y-106172000D03*
X126937000Y-106172000D03*
%TD*%
D17*
%TO.C,C11*%
X123952000Y-88379000D03*
X123952000Y-89929000D03*
%TD*%
D12*
%TO.C,LED2*%
X57500000Y-103240000D03*
D13*
X60040000Y-103240000D03*
X62580000Y-103240000D03*
X65120000Y-103240000D03*
X67660000Y-103240000D03*
X67660000Y-88000000D03*
X65120000Y-88000000D03*
X62580000Y-88000000D03*
X60040000Y-88000000D03*
X57500000Y-88000000D03*
%TD*%
D32*
%TO.C,D10*%
X126962500Y-92550000D03*
X128537500Y-92550000D03*
%TD*%
D26*
%TO.C,R21*%
X126937000Y-94234000D03*
X128587000Y-94234000D03*
%TD*%
D12*
%TO.C,LED4*%
X70700000Y-103240000D03*
D13*
X73240000Y-103240000D03*
X75780000Y-103240000D03*
X78320000Y-103240000D03*
X80860000Y-103240000D03*
X80860000Y-88000000D03*
X78320000Y-88000000D03*
X75780000Y-88000000D03*
X73240000Y-88000000D03*
X70700000Y-88000000D03*
%TD*%
D18*
%TO.C,REF\u002A\u002A*%
X157480000Y-51562000D03*
%TD*%
D33*
%TO.C,U1*%
X113460000Y-93599000D03*
X113460000Y-94869000D03*
X113460000Y-96139000D03*
X113460000Y-97409000D03*
X113460000Y-98679000D03*
X113460000Y-99949000D03*
X113460000Y-101219000D03*
X113460000Y-102489000D03*
X113460000Y-103759000D03*
X113460000Y-105029000D03*
X113460000Y-106299000D03*
X113460000Y-107569000D03*
X122760000Y-107569000D03*
X122760000Y-106299000D03*
X122760000Y-105029000D03*
X122760000Y-103759000D03*
X122760000Y-102489000D03*
X122760000Y-101219000D03*
X122760000Y-99949000D03*
X122760000Y-98679000D03*
X122760000Y-97409000D03*
X122760000Y-96139000D03*
X122760000Y-94869000D03*
X122760000Y-93599000D03*
%TD*%
D20*
%TO.C,SW3*%
X115500000Y-73200000D03*
X122000000Y-73200000D03*
X115500000Y-77700000D03*
X122000000Y-77700000D03*
%TD*%
D18*
%TO.C,REF\u002A\u002A*%
X53594000Y-109474000D03*
%TD*%
D34*
%TO.C,C5*%
X115316000Y-52763395D03*
D21*
X115316000Y-55263395D03*
%TD*%
D14*
%TO.C,R6*%
X143510000Y-67501000D03*
X143510000Y-69151000D03*
%TD*%
D17*
%TO.C,C10*%
X113538000Y-60947000D03*
X113538000Y-62497000D03*
%TD*%
D19*
%TO.C,R8*%
X135191000Y-93472000D03*
X133541000Y-93472000D03*
%TD*%
D20*
%TO.C,SW5*%
X115500000Y-86945000D03*
X122000000Y-86945000D03*
X115500000Y-91445000D03*
X122000000Y-91445000D03*
%TD*%
D10*
%TO.C,J4*%
X153862000Y-82311000D03*
D11*
X156402000Y-82311000D03*
X153862000Y-84851000D03*
X156402000Y-84851000D03*
X153862000Y-87391000D03*
X156402000Y-87391000D03*
%TD*%
D21*
%TO.C,C6*%
X134559113Y-85598000D03*
D34*
X132559113Y-85598000D03*
%TD*%
D14*
%TO.C,R7*%
X143256000Y-77787000D03*
X143256000Y-76137000D03*
%TD*%
D32*
%TO.C,D9*%
X126945000Y-85840000D03*
X128520000Y-85840000D03*
%TD*%
D35*
%TO.C,U6*%
X107950000Y-52070000D03*
D36*
X107950000Y-69850000D03*
X67310000Y-69850000D03*
X67310000Y-52070000D03*
%TD*%
M02*
