%FSLAX45Y45*%
G04 Gerber Fmt 4.5, Leading zero omitted, Abs format (unit mm)*
G04 Created by KiCad (PCBNEW (6.0.0)) date 2022-03-13 19:16:48*
%MOMM*%
%LPD*%
G01*
G04 APERTURE LIST*
%TA.AperFunction,Profile*%
%ADD10C,0.100000*%
%TD*%
%ADD11C,0.200000*%
%ADD12C,0.040000*%
%ADD13C,0.080000*%
%ADD14C,0.100000*%
%ADD15C,0.120000*%
G04 APERTURE END LIST*
D10*
X5359400Y-4800600D02*
G75*
G03*
X5003800Y-5156200I0J-355600D01*
G01*
X16103600Y-10947400D02*
X16103600Y-5156200D01*
X16103600Y-5156200D02*
G75*
G03*
X15748000Y-4800600I-355600J0D01*
G01*
X15748000Y-11303000D02*
G75*
G03*
X16103600Y-10947400I16581J339019D01*
G01*
X15748000Y-4800600D02*
X5359400Y-4800600D01*
X5359400Y-11303000D02*
X15748000Y-11303000D01*
X5003800Y-5156200D02*
X5003800Y-10947400D01*
X5003800Y-10947400D02*
G75*
G03*
X5359400Y-11303000I355600J0D01*
G01*
D11*
D12*
X5621348Y-8969052D02*
X5661348Y-9009052D01*
X5661348Y-8969052D02*
X5621348Y-9009052D01*
X5847400Y-8920800D02*
X5887400Y-8960800D01*
X5887400Y-8920800D02*
X5847400Y-8960800D01*
X6050600Y-9352600D02*
X6090600Y-9392600D01*
X6090600Y-9352600D02*
X6050600Y-9392600D01*
X6238000Y-7819000D02*
X6278000Y-7859000D01*
X6278000Y-7819000D02*
X6238000Y-7859000D01*
X6346652Y-9183548D02*
X6386652Y-9223548D01*
X6386652Y-9183548D02*
X6346652Y-9223548D01*
X6482400Y-9479600D02*
X6522400Y-9519600D01*
X6522400Y-9479600D02*
X6482400Y-9519600D01*
X6634800Y-9022400D02*
X6674800Y-9062400D01*
X6674800Y-9022400D02*
X6634800Y-9062400D01*
X6763050Y-9328450D02*
X6803050Y-9368450D01*
X6803050Y-9328450D02*
X6763050Y-9368450D01*
X6941348Y-9096852D02*
X6981348Y-9136852D01*
X6981348Y-9096852D02*
X6941348Y-9136852D01*
X7061601Y-9255999D02*
X7101601Y-9295999D01*
X7101601Y-9255999D02*
X7061601Y-9295999D01*
X7168200Y-8920800D02*
X7208200Y-8960800D01*
X7208200Y-8920800D02*
X7168200Y-8960800D01*
X7396800Y-9403400D02*
X7436800Y-9443400D01*
X7436800Y-9403400D02*
X7396800Y-9443400D01*
X7558000Y-7845200D02*
X7598000Y-7885200D01*
X7598000Y-7845200D02*
X7558000Y-7885200D01*
X7703348Y-9173052D02*
X7743348Y-9213052D01*
X7743348Y-9173052D02*
X7703348Y-9213052D01*
X7832349Y-9475851D02*
X7872349Y-9515851D01*
X7872349Y-9475851D02*
X7832349Y-9515851D01*
X7957348Y-9020652D02*
X7997348Y-9060652D01*
X7997348Y-9020652D02*
X7957348Y-9060652D01*
X8081350Y-9328450D02*
X8121350Y-9368450D01*
X8121350Y-9328450D02*
X8081350Y-9368450D01*
X8209600Y-9098600D02*
X8249600Y-9138600D01*
X8249600Y-9098600D02*
X8209600Y-9138600D01*
X8357001Y-9255999D02*
X8397001Y-9295999D01*
X8397001Y-9255999D02*
X8357001Y-9295999D01*
X8515348Y-8919852D02*
X8555348Y-8959852D01*
X8555348Y-8919852D02*
X8515348Y-8959852D01*
X8641400Y-9403400D02*
X8681400Y-9443400D01*
X8681400Y-9403400D02*
X8641400Y-9443400D01*
X8878000Y-7846000D02*
X8918000Y-7886000D01*
X8918000Y-7846000D02*
X8878000Y-7886000D01*
X9023348Y-9173852D02*
X9063348Y-9213852D01*
X9063348Y-9173852D02*
X9023348Y-9213852D01*
X9153149Y-9475851D02*
X9193149Y-9515851D01*
X9193149Y-9475851D02*
X9153149Y-9515851D01*
X9277348Y-9021452D02*
X9317348Y-9061452D01*
X9317348Y-9021452D02*
X9277348Y-9061452D01*
X9402150Y-9328450D02*
X9442150Y-9368450D01*
X9442150Y-9328450D02*
X9402150Y-9368450D01*
X9581348Y-9098452D02*
X9621348Y-9138452D01*
X9621348Y-9098452D02*
X9581348Y-9138452D01*
X9686697Y-9247103D02*
X9726697Y-9287103D01*
X9726697Y-9247103D02*
X9686697Y-9287103D01*
X9809800Y-8895400D02*
X9849800Y-8935400D01*
X9849800Y-8895400D02*
X9809800Y-8935400D01*
X9911400Y-9403400D02*
X9951400Y-9443400D01*
X9951400Y-9403400D02*
X9911400Y-9443400D01*
X10190800Y-9581200D02*
X10230800Y-9621200D01*
X10230800Y-9581200D02*
X10190800Y-9621200D01*
X10198000Y-7846800D02*
X10238000Y-7886800D01*
X10238000Y-7846800D02*
X10198000Y-7886800D01*
X10343348Y-9174652D02*
X10383348Y-9214652D01*
X10383348Y-9174652D02*
X10343348Y-9214652D01*
X10473949Y-9475851D02*
X10513949Y-9515851D01*
X10513949Y-9475851D02*
X10473949Y-9515851D01*
X10597348Y-9022252D02*
X10637348Y-9062252D01*
X10637348Y-9022252D02*
X10597348Y-9062252D01*
X10722950Y-9328450D02*
X10762950Y-9368450D01*
X10762950Y-9328450D02*
X10722950Y-9368450D01*
X11003600Y-7930200D02*
X11043600Y-7970200D01*
X11043600Y-7930200D02*
X11003600Y-7970200D01*
X11029000Y-8082600D02*
X11069000Y-8122600D01*
X11069000Y-8082600D02*
X11029000Y-8122600D01*
X11054400Y-9987600D02*
X11094400Y-10027600D01*
X11094400Y-9987600D02*
X11054400Y-10027600D01*
X11087000Y-7846800D02*
X11127000Y-7886800D01*
X11127000Y-7846800D02*
X11087000Y-7886800D01*
X11105200Y-10394000D02*
X11145200Y-10434000D01*
X11145200Y-10394000D02*
X11105200Y-10434000D01*
X11130600Y-7955600D02*
X11170600Y-7995600D01*
X11170600Y-7955600D02*
X11130600Y-7995600D01*
X11130600Y-9581200D02*
X11170600Y-9621200D01*
X11170600Y-9581200D02*
X11130600Y-9621200D01*
X11130600Y-10140000D02*
X11170600Y-10180000D01*
X11170600Y-10140000D02*
X11130600Y-10180000D01*
X11511600Y-10317800D02*
X11551600Y-10357800D01*
X11551600Y-10317800D02*
X11511600Y-10357800D01*
X11511600Y-10419400D02*
X11551600Y-10459400D01*
X11551600Y-10419400D02*
X11511600Y-10459400D01*
X11587800Y-10775000D02*
X11627800Y-10815000D01*
X11627800Y-10775000D02*
X11587800Y-10815000D01*
X11918000Y-10216200D02*
X11958000Y-10256200D01*
X11958000Y-10216200D02*
X11918000Y-10256200D01*
X11943400Y-10089200D02*
X11983400Y-10129200D01*
X11983400Y-10089200D02*
X11943400Y-10129200D01*
X11968800Y-9962200D02*
X12008800Y-10002200D01*
X12008800Y-9962200D02*
X11968800Y-10002200D01*
X11994200Y-9835200D02*
X12034200Y-9875200D01*
X12034200Y-9835200D02*
X11994200Y-9875200D01*
X12019600Y-9327200D02*
X12059600Y-9367200D01*
X12059600Y-9327200D02*
X12019600Y-9367200D01*
X12019600Y-9454200D02*
X12059600Y-9494200D01*
X12059600Y-9454200D02*
X12019600Y-9494200D01*
X12019600Y-9581200D02*
X12059600Y-9621200D01*
X12059600Y-9581200D02*
X12019600Y-9621200D01*
X12019600Y-9708200D02*
X12059600Y-9748200D01*
X12059600Y-9708200D02*
X12019600Y-9748200D01*
X12476800Y-10622600D02*
X12516800Y-10662600D01*
X12516800Y-10622600D02*
X12476800Y-10662600D01*
X12502200Y-9708200D02*
X12542200Y-9748200D01*
X12542200Y-9708200D02*
X12502200Y-9748200D01*
X12553000Y-9606600D02*
X12593000Y-9646600D01*
X12593000Y-9606600D02*
X12553000Y-9646600D01*
X12727051Y-8822949D02*
X12767051Y-8862949D01*
X12767051Y-8822949D02*
X12727051Y-8862949D01*
X12781600Y-9632000D02*
X12821600Y-9672000D01*
X12821600Y-9632000D02*
X12781600Y-9672000D01*
X12781600Y-9733600D02*
X12821600Y-9773600D01*
X12821600Y-9733600D02*
X12781600Y-9773600D01*
X13010200Y-9022400D02*
X13050200Y-9062400D01*
X13050200Y-9022400D02*
X13010200Y-9062400D01*
X13010200Y-10292400D02*
X13050200Y-10332400D01*
X13050200Y-10292400D02*
X13010200Y-10332400D01*
X13061000Y-10775000D02*
X13101000Y-10815000D01*
X13101000Y-10775000D02*
X13061000Y-10815000D01*
X13111800Y-9428800D02*
X13151800Y-9468800D01*
X13151800Y-9428800D02*
X13111800Y-9468800D01*
X13188000Y-9225600D02*
X13228000Y-9265600D01*
X13228000Y-9225600D02*
X13188000Y-9265600D01*
X13543600Y-8895400D02*
X13583600Y-8935400D01*
X13583600Y-8895400D02*
X13543600Y-8935400D01*
X13641451Y-8822949D02*
X13681451Y-8862949D01*
X13681451Y-8822949D02*
X13641451Y-8862949D01*
X13645200Y-9327200D02*
X13685200Y-9367200D01*
X13685200Y-9327200D02*
X13645200Y-9367200D01*
X13696000Y-11003600D02*
X13736000Y-11043600D01*
X13736000Y-11003600D02*
X13696000Y-11043600D01*
X13721400Y-9759000D02*
X13761400Y-9799000D01*
X13761400Y-9759000D02*
X13721400Y-9799000D01*
X13797600Y-9682800D02*
X13837600Y-9722800D01*
X13837600Y-9682800D02*
X13797600Y-9722800D01*
X13848400Y-9251000D02*
X13888400Y-9291000D01*
X13888400Y-9251000D02*
X13848400Y-9291000D01*
X13950000Y-10368600D02*
X13990000Y-10408600D01*
X13990000Y-10368600D02*
X13950000Y-10408600D01*
X13975400Y-11003600D02*
X14015400Y-11043600D01*
X14015400Y-11003600D02*
X13975400Y-11043600D01*
X14051600Y-9225600D02*
X14091600Y-9265600D01*
X14091600Y-9225600D02*
X14051600Y-9265600D01*
X14051600Y-10317800D02*
X14091600Y-10357800D01*
X14091600Y-10317800D02*
X14051600Y-10357800D01*
X14178600Y-9225600D02*
X14218600Y-9265600D01*
X14218600Y-9225600D02*
X14178600Y-9265600D01*
X14254800Y-11003600D02*
X14294800Y-11043600D01*
X14294800Y-11003600D02*
X14254800Y-11043600D01*
X14305600Y-9225600D02*
X14345600Y-9265600D01*
X14345600Y-9225600D02*
X14305600Y-9265600D01*
X14305600Y-10368600D02*
X14345600Y-10408600D01*
X14345600Y-10368600D02*
X14305600Y-10408600D01*
X14432600Y-8895400D02*
X14472600Y-8935400D01*
X14472600Y-8895400D02*
X14432600Y-8935400D01*
X14483400Y-10368600D02*
X14523400Y-10408600D01*
X14523400Y-10368600D02*
X14483400Y-10408600D01*
X14559600Y-9251000D02*
X14599600Y-9291000D01*
X14599600Y-9251000D02*
X14559600Y-9291000D01*
X14635800Y-10368600D02*
X14675800Y-10408600D01*
X14675800Y-10368600D02*
X14635800Y-10408600D01*
X14940600Y-9276400D02*
X14980600Y-9316400D01*
X14980600Y-9276400D02*
X14940600Y-9316400D01*
X14940600Y-10952800D02*
X14980600Y-10992800D01*
X14980600Y-10952800D02*
X14940600Y-10992800D01*
X15067600Y-9682800D02*
X15107600Y-9722800D01*
X15107600Y-9682800D02*
X15067600Y-9722800D01*
X15093000Y-9251000D02*
X15133000Y-9291000D01*
X15133000Y-9251000D02*
X15093000Y-9291000D01*
X15093000Y-10974100D02*
X15133000Y-11014100D01*
X15133000Y-10974100D02*
X15093000Y-11014100D01*
X15169200Y-10394000D02*
X15209200Y-10434000D01*
X15209200Y-10394000D02*
X15169200Y-10434000D01*
X15235240Y-11115360D02*
X15275240Y-11155360D01*
X15275240Y-11115360D02*
X15235240Y-11155360D01*
X15296200Y-9657400D02*
X15336200Y-9697400D01*
X15336200Y-9657400D02*
X15296200Y-9697400D01*
X15301280Y-10282240D02*
X15341280Y-10322240D01*
X15341280Y-10282240D02*
X15301280Y-10322240D01*
X15347000Y-9784400D02*
X15387000Y-9824400D01*
X15387000Y-9784400D02*
X15347000Y-9824400D01*
X15575600Y-9276400D02*
X15615600Y-9316400D01*
X15615600Y-9276400D02*
X15575600Y-9316400D01*
D13*
X5790000Y-6100000D02*
G75*
G03*
X5790000Y-6100000I-40000J0D01*
G01*
X5790000Y-7624000D02*
G75*
G03*
X5790000Y-7624000I-40000J0D01*
G01*
X5790000Y-8800000D02*
G75*
G03*
X5790000Y-8800000I-40000J0D01*
G01*
X5790000Y-10324000D02*
G75*
G03*
X5790000Y-10324000I-40000J0D01*
G01*
X6044000Y-6100000D02*
G75*
G03*
X6044000Y-6100000I-40000J0D01*
G01*
X6044000Y-7624000D02*
G75*
G03*
X6044000Y-7624000I-40000J0D01*
G01*
X6044000Y-8800000D02*
G75*
G03*
X6044000Y-8800000I-40000J0D01*
G01*
X6044000Y-10324000D02*
G75*
G03*
X6044000Y-10324000I-40000J0D01*
G01*
X6298000Y-6100000D02*
G75*
G03*
X6298000Y-6100000I-40000J0D01*
G01*
X6298000Y-7624000D02*
G75*
G03*
X6298000Y-7624000I-40000J0D01*
G01*
X6298000Y-8800000D02*
G75*
G03*
X6298000Y-8800000I-40000J0D01*
G01*
X6298000Y-10324000D02*
G75*
G03*
X6298000Y-10324000I-40000J0D01*
G01*
X6552000Y-6100000D02*
G75*
G03*
X6552000Y-6100000I-40000J0D01*
G01*
X6552000Y-7624000D02*
G75*
G03*
X6552000Y-7624000I-40000J0D01*
G01*
X6552000Y-8800000D02*
G75*
G03*
X6552000Y-8800000I-40000J0D01*
G01*
X6552000Y-10324000D02*
G75*
G03*
X6552000Y-10324000I-40000J0D01*
G01*
X6806000Y-6100000D02*
G75*
G03*
X6806000Y-6100000I-40000J0D01*
G01*
X6806000Y-7624000D02*
G75*
G03*
X6806000Y-7624000I-40000J0D01*
G01*
X6806000Y-8800000D02*
G75*
G03*
X6806000Y-8800000I-40000J0D01*
G01*
X6806000Y-10324000D02*
G75*
G03*
X6806000Y-10324000I-40000J0D01*
G01*
X7110000Y-6100000D02*
G75*
G03*
X7110000Y-6100000I-40000J0D01*
G01*
X7110000Y-7624000D02*
G75*
G03*
X7110000Y-7624000I-40000J0D01*
G01*
X7110000Y-8800000D02*
G75*
G03*
X7110000Y-8800000I-40000J0D01*
G01*
X7110000Y-10324000D02*
G75*
G03*
X7110000Y-10324000I-40000J0D01*
G01*
X7364000Y-6100000D02*
G75*
G03*
X7364000Y-6100000I-40000J0D01*
G01*
X7364000Y-7624000D02*
G75*
G03*
X7364000Y-7624000I-40000J0D01*
G01*
X7364000Y-8800000D02*
G75*
G03*
X7364000Y-8800000I-40000J0D01*
G01*
X7364000Y-10324000D02*
G75*
G03*
X7364000Y-10324000I-40000J0D01*
G01*
X7618000Y-6100000D02*
G75*
G03*
X7618000Y-6100000I-40000J0D01*
G01*
X7618000Y-7624000D02*
G75*
G03*
X7618000Y-7624000I-40000J0D01*
G01*
X7618000Y-8800000D02*
G75*
G03*
X7618000Y-8800000I-40000J0D01*
G01*
X7618000Y-10324000D02*
G75*
G03*
X7618000Y-10324000I-40000J0D01*
G01*
X7872000Y-6100000D02*
G75*
G03*
X7872000Y-6100000I-40000J0D01*
G01*
X7872000Y-7624000D02*
G75*
G03*
X7872000Y-7624000I-40000J0D01*
G01*
X7872000Y-8800000D02*
G75*
G03*
X7872000Y-8800000I-40000J0D01*
G01*
X7872000Y-10324000D02*
G75*
G03*
X7872000Y-10324000I-40000J0D01*
G01*
X8126000Y-6100000D02*
G75*
G03*
X8126000Y-6100000I-40000J0D01*
G01*
X8126000Y-7624000D02*
G75*
G03*
X8126000Y-7624000I-40000J0D01*
G01*
X8126000Y-8800000D02*
G75*
G03*
X8126000Y-8800000I-40000J0D01*
G01*
X8126000Y-10324000D02*
G75*
G03*
X8126000Y-10324000I-40000J0D01*
G01*
X8430000Y-6100000D02*
G75*
G03*
X8430000Y-6100000I-40000J0D01*
G01*
X8430000Y-7624000D02*
G75*
G03*
X8430000Y-7624000I-40000J0D01*
G01*
X8430000Y-8800000D02*
G75*
G03*
X8430000Y-8800000I-40000J0D01*
G01*
X8430000Y-10324000D02*
G75*
G03*
X8430000Y-10324000I-40000J0D01*
G01*
X8684000Y-6100000D02*
G75*
G03*
X8684000Y-6100000I-40000J0D01*
G01*
X8684000Y-7624000D02*
G75*
G03*
X8684000Y-7624000I-40000J0D01*
G01*
X8684000Y-8800000D02*
G75*
G03*
X8684000Y-8800000I-40000J0D01*
G01*
X8684000Y-10324000D02*
G75*
G03*
X8684000Y-10324000I-40000J0D01*
G01*
X8938000Y-6100000D02*
G75*
G03*
X8938000Y-6100000I-40000J0D01*
G01*
X8938000Y-7624000D02*
G75*
G03*
X8938000Y-7624000I-40000J0D01*
G01*
X8938000Y-8800000D02*
G75*
G03*
X8938000Y-8800000I-40000J0D01*
G01*
X8938000Y-10324000D02*
G75*
G03*
X8938000Y-10324000I-40000J0D01*
G01*
X9192000Y-6100000D02*
G75*
G03*
X9192000Y-6100000I-40000J0D01*
G01*
X9192000Y-7624000D02*
G75*
G03*
X9192000Y-7624000I-40000J0D01*
G01*
X9192000Y-8800000D02*
G75*
G03*
X9192000Y-8800000I-40000J0D01*
G01*
X9192000Y-10324000D02*
G75*
G03*
X9192000Y-10324000I-40000J0D01*
G01*
X9446000Y-6100000D02*
G75*
G03*
X9446000Y-6100000I-40000J0D01*
G01*
X9446000Y-7624000D02*
G75*
G03*
X9446000Y-7624000I-40000J0D01*
G01*
X9446000Y-8800000D02*
G75*
G03*
X9446000Y-8800000I-40000J0D01*
G01*
X9446000Y-10324000D02*
G75*
G03*
X9446000Y-10324000I-40000J0D01*
G01*
X9750000Y-6100000D02*
G75*
G03*
X9750000Y-6100000I-40000J0D01*
G01*
X9750000Y-7624000D02*
G75*
G03*
X9750000Y-7624000I-40000J0D01*
G01*
X9750000Y-8800000D02*
G75*
G03*
X9750000Y-8800000I-40000J0D01*
G01*
X9750000Y-10324000D02*
G75*
G03*
X9750000Y-10324000I-40000J0D01*
G01*
X10004000Y-6100000D02*
G75*
G03*
X10004000Y-6100000I-40000J0D01*
G01*
X10004000Y-7624000D02*
G75*
G03*
X10004000Y-7624000I-40000J0D01*
G01*
X10004000Y-8800000D02*
G75*
G03*
X10004000Y-8800000I-40000J0D01*
G01*
X10004000Y-10324000D02*
G75*
G03*
X10004000Y-10324000I-40000J0D01*
G01*
X10258000Y-6100000D02*
G75*
G03*
X10258000Y-6100000I-40000J0D01*
G01*
X10258000Y-7624000D02*
G75*
G03*
X10258000Y-7624000I-40000J0D01*
G01*
X10258000Y-8800000D02*
G75*
G03*
X10258000Y-8800000I-40000J0D01*
G01*
X10258000Y-10324000D02*
G75*
G03*
X10258000Y-10324000I-40000J0D01*
G01*
X10512000Y-6100000D02*
G75*
G03*
X10512000Y-6100000I-40000J0D01*
G01*
X10512000Y-7624000D02*
G75*
G03*
X10512000Y-7624000I-40000J0D01*
G01*
X10512000Y-8800000D02*
G75*
G03*
X10512000Y-8800000I-40000J0D01*
G01*
X10512000Y-10324000D02*
G75*
G03*
X10512000Y-10324000I-40000J0D01*
G01*
X10766000Y-6100000D02*
G75*
G03*
X10766000Y-6100000I-40000J0D01*
G01*
X10766000Y-7624000D02*
G75*
G03*
X10766000Y-7624000I-40000J0D01*
G01*
X10766000Y-8800000D02*
G75*
G03*
X10766000Y-8800000I-40000J0D01*
G01*
X10766000Y-10324000D02*
G75*
G03*
X10766000Y-10324000I-40000J0D01*
G01*
X11571600Y-5276340D02*
G75*
G03*
X11571600Y-5276340I-40000J0D01*
G01*
X11571600Y-5526340D02*
G75*
G03*
X11571600Y-5526340I-40000J0D01*
G01*
X12995000Y-7443700D02*
G75*
G03*
X12995000Y-7443700I-40000J0D01*
G01*
X12995000Y-7697700D02*
G75*
G03*
X12995000Y-7697700I-40000J0D01*
G01*
X12995000Y-7951700D02*
G75*
G03*
X12995000Y-7951700I-40000J0D01*
G01*
X13295911Y-8559800D02*
G75*
G03*
X13295911Y-8559800I-40000J0D01*
G01*
X13495911Y-8559800D02*
G75*
G03*
X13495911Y-8559800I-40000J0D01*
G01*
X13757000Y-7443700D02*
G75*
G03*
X13757000Y-7443700I-40000J0D01*
G01*
X13757000Y-7697700D02*
G75*
G03*
X13757000Y-7697700I-40000J0D01*
G01*
X13757000Y-7951700D02*
G75*
G03*
X13757000Y-7951700I-40000J0D01*
G01*
X14061800Y-8180300D02*
G75*
G03*
X14061800Y-8180300I-40000J0D01*
G01*
X14061800Y-8434300D02*
G75*
G03*
X14061800Y-8434300I-40000J0D01*
G01*
X14061800Y-8688300D02*
G75*
G03*
X14061800Y-8688300I-40000J0D01*
G01*
X14823800Y-8180300D02*
G75*
G03*
X14823800Y-8180300I-40000J0D01*
G01*
X14823800Y-8434300D02*
G75*
G03*
X14823800Y-8434300I-40000J0D01*
G01*
X14823800Y-8688300D02*
G75*
G03*
X14823800Y-8688300I-40000J0D01*
G01*
D14*
X6731000Y-5157000D02*
X6731000Y-5257000D01*
X6681000Y-5207000D02*
X6781000Y-5207000D01*
X6731000Y-6935000D02*
X6731000Y-7035000D01*
X6681000Y-6985000D02*
X6781000Y-6985000D01*
X10795000Y-5157000D02*
X10795000Y-5257000D01*
X10745000Y-5207000D02*
X10845000Y-5207000D01*
X10795000Y-6935000D02*
X10795000Y-7035000D01*
X10745000Y-6985000D02*
X10845000Y-6985000D01*
X11550000Y-5905000D02*
X11550000Y-6005000D01*
X11500000Y-5955000D02*
X11600000Y-5955000D01*
X11550000Y-6355000D02*
X11550000Y-6455000D01*
X11500000Y-6405000D02*
X11600000Y-6405000D01*
X11550000Y-7270000D02*
X11550000Y-7370000D01*
X11500000Y-7320000D02*
X11600000Y-7320000D01*
X11550000Y-7720000D02*
X11550000Y-7820000D01*
X11500000Y-7770000D02*
X11600000Y-7770000D01*
X11550000Y-8644500D02*
X11550000Y-8744500D01*
X11500000Y-8694500D02*
X11600000Y-8694500D01*
X11550000Y-9094500D02*
X11550000Y-9194500D01*
X11500000Y-9144500D02*
X11600000Y-9144500D01*
X12200000Y-5905000D02*
X12200000Y-6005000D01*
X12150000Y-5955000D02*
X12250000Y-5955000D01*
X12200000Y-6355000D02*
X12200000Y-6455000D01*
X12150000Y-6405000D02*
X12250000Y-6405000D01*
X12200000Y-7270000D02*
X12200000Y-7370000D01*
X12150000Y-7320000D02*
X12250000Y-7320000D01*
X12200000Y-7720000D02*
X12200000Y-7820000D01*
X12150000Y-7770000D02*
X12250000Y-7770000D01*
X12200000Y-8644500D02*
X12200000Y-8744500D01*
X12150000Y-8694500D02*
X12250000Y-8694500D01*
X12200000Y-9094500D02*
X12200000Y-9194500D01*
X12150000Y-9144500D02*
X12250000Y-9144500D01*
X12318000Y-11075200D02*
X12318000Y-11175200D01*
X12268000Y-11125200D02*
X12368000Y-11125200D01*
X12572000Y-11075200D02*
X12572000Y-11175200D01*
X12522000Y-11125200D02*
X12622000Y-11125200D01*
X12826000Y-11075200D02*
X12826000Y-11175200D01*
X12776000Y-11125200D02*
X12876000Y-11125200D01*
X13080000Y-11075200D02*
X13080000Y-11175200D01*
X13030000Y-11125200D02*
X13130000Y-11125200D01*
X13150000Y-6588000D02*
X13150000Y-6688000D01*
X13100000Y-6638000D02*
X13200000Y-6638000D01*
X13150000Y-7038000D02*
X13150000Y-7138000D01*
X13100000Y-7088000D02*
X13200000Y-7088000D01*
X13800000Y-6588000D02*
X13800000Y-6688000D01*
X13750000Y-6638000D02*
X13850000Y-6638000D01*
X13800000Y-7038000D02*
X13800000Y-7138000D01*
X13750000Y-7088000D02*
X13850000Y-7088000D01*
X14560400Y-6401600D02*
X14560400Y-6501600D01*
X14510400Y-6451600D02*
X14610400Y-6451600D01*
X14560400Y-6655600D02*
X14560400Y-6755600D01*
X14510400Y-6705600D02*
X14610400Y-6705600D01*
X14560400Y-6909600D02*
X14560400Y-7009600D01*
X14510400Y-6959600D02*
X14610400Y-6959600D01*
X14560400Y-7265200D02*
X14560400Y-7365200D01*
X14510400Y-7315200D02*
X14610400Y-7315200D01*
X14560400Y-7519200D02*
X14560400Y-7619200D01*
X14510400Y-7569200D02*
X14610400Y-7569200D01*
X14560400Y-7773200D02*
X14560400Y-7873200D01*
X14510400Y-7823200D02*
X14610400Y-7823200D01*
X15386200Y-8181100D02*
X15386200Y-8281100D01*
X15336200Y-8231100D02*
X15436200Y-8231100D01*
X15386200Y-8435100D02*
X15386200Y-8535100D01*
X15336200Y-8485100D02*
X15436200Y-8485100D01*
X15386200Y-8689100D02*
X15386200Y-8789100D01*
X15336200Y-8739100D02*
X15436200Y-8739100D01*
X15640200Y-8181100D02*
X15640200Y-8281100D01*
X15590200Y-8231100D02*
X15690200Y-8231100D01*
X15640200Y-8435100D02*
X15640200Y-8535100D01*
X15590200Y-8485100D02*
X15690200Y-8485100D01*
X15640200Y-8689100D02*
X15640200Y-8789100D01*
X15590200Y-8739100D02*
X15690200Y-8739100D01*
D15*
X13411327Y-5695077D02*
X13411327Y-5610223D01*
X13326473Y-5610223D01*
X13326473Y-5695077D01*
X13411327Y-5695077D01*
X13761327Y-5695077D02*
X13761327Y-5610223D01*
X13676473Y-5610223D01*
X13676473Y-5695077D01*
X13761327Y-5695077D01*
X14111327Y-5695077D02*
X14111327Y-5610223D01*
X14026473Y-5610223D01*
X14026473Y-5695077D01*
X14111327Y-5695077D01*
X14461327Y-5695077D02*
X14461327Y-5610223D01*
X14376473Y-5610223D01*
X14376473Y-5695077D01*
X14461327Y-5695077D01*
X14811327Y-5695077D02*
X14811327Y-5610223D01*
X14726473Y-5610223D01*
X14726473Y-5695077D01*
X14811327Y-5695077D01*
X15161327Y-5695077D02*
X15161327Y-5610223D01*
X15076473Y-5610223D01*
X15076473Y-5695077D01*
X15161327Y-5695077D01*
D11*
X5256419Y-11618881D02*
X5256419Y-11418881D01*
X5304038Y-11418881D01*
X5332610Y-11428405D01*
X5351657Y-11447453D01*
X5361181Y-11466500D01*
X5370705Y-11504596D01*
X5370705Y-11533167D01*
X5361181Y-11571262D01*
X5351657Y-11590310D01*
X5332610Y-11609357D01*
X5304038Y-11618881D01*
X5256419Y-11618881D01*
X5456419Y-11618881D02*
X5456419Y-11485548D01*
X5456419Y-11523643D02*
X5465943Y-11504596D01*
X5475467Y-11495072D01*
X5494514Y-11485548D01*
X5513562Y-11485548D01*
X5580229Y-11618881D02*
X5580229Y-11485548D01*
X5580229Y-11418881D02*
X5570705Y-11428405D01*
X5580229Y-11437929D01*
X5589752Y-11428405D01*
X5580229Y-11418881D01*
X5580229Y-11437929D01*
X5704038Y-11618881D02*
X5684990Y-11609357D01*
X5675467Y-11590310D01*
X5675467Y-11418881D01*
X5808800Y-11618881D02*
X5789752Y-11609357D01*
X5780228Y-11590310D01*
X5780228Y-11418881D01*
X6037371Y-11618881D02*
X6037371Y-11418881D01*
X6104038Y-11561738D01*
X6170705Y-11418881D01*
X6170705Y-11618881D01*
X6351657Y-11618881D02*
X6351657Y-11514119D01*
X6342133Y-11495072D01*
X6323086Y-11485548D01*
X6284990Y-11485548D01*
X6265943Y-11495072D01*
X6351657Y-11609357D02*
X6332609Y-11618881D01*
X6284990Y-11618881D01*
X6265943Y-11609357D01*
X6256419Y-11590310D01*
X6256419Y-11571262D01*
X6265943Y-11552215D01*
X6284990Y-11542691D01*
X6332609Y-11542691D01*
X6351657Y-11533167D01*
X6446895Y-11485548D02*
X6446895Y-11685548D01*
X6446895Y-11495072D02*
X6465943Y-11485548D01*
X6504038Y-11485548D01*
X6523086Y-11495072D01*
X6532609Y-11504596D01*
X6542133Y-11523643D01*
X6542133Y-11580786D01*
X6532609Y-11599834D01*
X6523086Y-11609357D01*
X6504038Y-11618881D01*
X6465943Y-11618881D01*
X6446895Y-11609357D01*
X6627848Y-11599834D02*
X6637371Y-11609357D01*
X6627848Y-11618881D01*
X6618324Y-11609357D01*
X6627848Y-11599834D01*
X6627848Y-11618881D01*
X6627848Y-11495072D02*
X6637371Y-11504596D01*
X6627848Y-11514119D01*
X6618324Y-11504596D01*
X6627848Y-11495072D01*
X6627848Y-11514119D01*
D12*
X4958800Y-11928405D02*
X4998800Y-11968405D01*
X4998800Y-11928405D02*
X4958800Y-11968405D01*
D11*
X5294514Y-11838881D02*
X5313562Y-11838881D01*
X5332610Y-11848405D01*
X5342133Y-11857929D01*
X5351657Y-11876977D01*
X5361181Y-11915072D01*
X5361181Y-11962691D01*
X5351657Y-12000786D01*
X5342133Y-12019834D01*
X5332610Y-12029357D01*
X5313562Y-12038881D01*
X5294514Y-12038881D01*
X5275467Y-12029357D01*
X5265943Y-12019834D01*
X5256419Y-12000786D01*
X5246895Y-11962691D01*
X5246895Y-11915072D01*
X5256419Y-11876977D01*
X5265943Y-11857929D01*
X5275467Y-11848405D01*
X5294514Y-11838881D01*
X5446895Y-12019834D02*
X5456419Y-12029357D01*
X5446895Y-12038881D01*
X5437371Y-12029357D01*
X5446895Y-12019834D01*
X5446895Y-12038881D01*
X5627848Y-11905548D02*
X5627848Y-12038881D01*
X5580229Y-11829357D02*
X5532610Y-11972215D01*
X5656419Y-11972215D01*
X5770705Y-11838881D02*
X5789752Y-11838881D01*
X5808800Y-11848405D01*
X5818324Y-11857929D01*
X5827848Y-11876977D01*
X5837371Y-11915072D01*
X5837371Y-11962691D01*
X5827848Y-12000786D01*
X5818324Y-12019834D01*
X5808800Y-12029357D01*
X5789752Y-12038881D01*
X5770705Y-12038881D01*
X5751657Y-12029357D01*
X5742133Y-12019834D01*
X5732609Y-12000786D01*
X5723086Y-11962691D01*
X5723086Y-11915072D01*
X5732609Y-11876977D01*
X5742133Y-11857929D01*
X5751657Y-11848405D01*
X5770705Y-11838881D01*
X5961181Y-11838881D02*
X5980228Y-11838881D01*
X5999276Y-11848405D01*
X6008800Y-11857929D01*
X6018324Y-11876977D01*
X6027848Y-11915072D01*
X6027848Y-11962691D01*
X6018324Y-12000786D01*
X6008800Y-12019834D01*
X5999276Y-12029357D01*
X5980228Y-12038881D01*
X5961181Y-12038881D01*
X5942133Y-12029357D01*
X5932609Y-12019834D01*
X5923086Y-12000786D01*
X5913562Y-11962691D01*
X5913562Y-11915072D01*
X5923086Y-11876977D01*
X5932609Y-11857929D01*
X5942133Y-11848405D01*
X5961181Y-11838881D01*
X6113562Y-12038881D02*
X6113562Y-11905548D01*
X6113562Y-11924596D02*
X6123086Y-11915072D01*
X6142133Y-11905548D01*
X6170705Y-11905548D01*
X6189752Y-11915072D01*
X6199276Y-11934119D01*
X6199276Y-12038881D01*
X6199276Y-11934119D02*
X6208800Y-11915072D01*
X6227848Y-11905548D01*
X6256419Y-11905548D01*
X6275467Y-11915072D01*
X6284990Y-11934119D01*
X6284990Y-12038881D01*
X6380228Y-12038881D02*
X6380228Y-11905548D01*
X6380228Y-11924596D02*
X6389752Y-11915072D01*
X6408800Y-11905548D01*
X6437371Y-11905548D01*
X6456419Y-11915072D01*
X6465943Y-11934119D01*
X6465943Y-12038881D01*
X6465943Y-11934119D02*
X6475467Y-11915072D01*
X6494514Y-11905548D01*
X6523086Y-11905548D01*
X6542133Y-11915072D01*
X6551657Y-11934119D01*
X6551657Y-12038881D01*
X6942133Y-11829357D02*
X6770705Y-12086500D01*
X7199276Y-11838881D02*
X7218324Y-11838881D01*
X7237371Y-11848405D01*
X7246895Y-11857929D01*
X7256419Y-11876977D01*
X7265943Y-11915072D01*
X7265943Y-11962691D01*
X7256419Y-12000786D01*
X7246895Y-12019834D01*
X7237371Y-12029357D01*
X7218324Y-12038881D01*
X7199276Y-12038881D01*
X7180228Y-12029357D01*
X7170705Y-12019834D01*
X7161181Y-12000786D01*
X7151657Y-11962691D01*
X7151657Y-11915072D01*
X7161181Y-11876977D01*
X7170705Y-11857929D01*
X7180228Y-11848405D01*
X7199276Y-11838881D01*
X7351657Y-12019834D02*
X7361181Y-12029357D01*
X7351657Y-12038881D01*
X7342133Y-12029357D01*
X7351657Y-12019834D01*
X7351657Y-12038881D01*
X7484990Y-11838881D02*
X7504038Y-11838881D01*
X7523086Y-11848405D01*
X7532609Y-11857929D01*
X7542133Y-11876977D01*
X7551657Y-11915072D01*
X7551657Y-11962691D01*
X7542133Y-12000786D01*
X7532609Y-12019834D01*
X7523086Y-12029357D01*
X7504038Y-12038881D01*
X7484990Y-12038881D01*
X7465943Y-12029357D01*
X7456419Y-12019834D01*
X7446895Y-12000786D01*
X7437371Y-11962691D01*
X7437371Y-11915072D01*
X7446895Y-11876977D01*
X7456419Y-11857929D01*
X7465943Y-11848405D01*
X7484990Y-11838881D01*
X7742133Y-12038881D02*
X7627848Y-12038881D01*
X7684990Y-12038881D02*
X7684990Y-11838881D01*
X7665943Y-11867453D01*
X7646895Y-11886500D01*
X7627848Y-11896024D01*
X7923086Y-11838881D02*
X7827848Y-11838881D01*
X7818324Y-11934119D01*
X7827848Y-11924596D01*
X7846895Y-11915072D01*
X7894514Y-11915072D01*
X7913562Y-11924596D01*
X7923086Y-11934119D01*
X7932609Y-11953167D01*
X7932609Y-12000786D01*
X7923086Y-12019834D01*
X7913562Y-12029357D01*
X7894514Y-12038881D01*
X7846895Y-12038881D01*
X7827848Y-12029357D01*
X7818324Y-12019834D01*
X7999276Y-11838881D02*
X8132609Y-11838881D01*
X8046895Y-12038881D01*
X8199276Y-11838881D02*
X8199276Y-11876977D01*
X8275467Y-11838881D02*
X8275467Y-11876977D01*
X8570705Y-12115072D02*
X8561181Y-12105548D01*
X8542133Y-12076977D01*
X8532610Y-12057929D01*
X8523086Y-12029357D01*
X8513562Y-11981738D01*
X8513562Y-11943643D01*
X8523086Y-11896024D01*
X8532610Y-11867453D01*
X8542133Y-11848405D01*
X8561181Y-11819834D01*
X8570705Y-11810310D01*
X8656419Y-12038881D02*
X8694514Y-12038881D01*
X8713562Y-12029357D01*
X8723086Y-12019834D01*
X8742133Y-11991262D01*
X8751657Y-11953167D01*
X8751657Y-11876977D01*
X8742133Y-11857929D01*
X8732610Y-11848405D01*
X8713562Y-11838881D01*
X8675467Y-11838881D01*
X8656419Y-11848405D01*
X8646895Y-11857929D01*
X8637371Y-11876977D01*
X8637371Y-11924596D01*
X8646895Y-11943643D01*
X8656419Y-11953167D01*
X8675467Y-11962691D01*
X8713562Y-11962691D01*
X8732610Y-11953167D01*
X8742133Y-11943643D01*
X8751657Y-11924596D01*
X8923086Y-11838881D02*
X8884990Y-11838881D01*
X8865943Y-11848405D01*
X8856419Y-11857929D01*
X8837371Y-11886500D01*
X8827848Y-11924596D01*
X8827848Y-12000786D01*
X8837371Y-12019834D01*
X8846895Y-12029357D01*
X8865943Y-12038881D01*
X8904038Y-12038881D01*
X8923086Y-12029357D01*
X8932610Y-12019834D01*
X8942133Y-12000786D01*
X8942133Y-11953167D01*
X8932610Y-11934119D01*
X8923086Y-11924596D01*
X8904038Y-11915072D01*
X8865943Y-11915072D01*
X8846895Y-11924596D01*
X8837371Y-11934119D01*
X8827848Y-11953167D01*
X9180229Y-12038881D02*
X9180229Y-11838881D01*
X9265943Y-12038881D02*
X9265943Y-11934119D01*
X9256419Y-11915072D01*
X9237371Y-11905548D01*
X9208800Y-11905548D01*
X9189752Y-11915072D01*
X9180229Y-11924596D01*
X9389752Y-12038881D02*
X9370705Y-12029357D01*
X9361181Y-12019834D01*
X9351657Y-12000786D01*
X9351657Y-11943643D01*
X9361181Y-11924596D01*
X9370705Y-11915072D01*
X9389752Y-11905548D01*
X9418324Y-11905548D01*
X9437371Y-11915072D01*
X9446895Y-11924596D01*
X9456419Y-11943643D01*
X9456419Y-12000786D01*
X9446895Y-12019834D01*
X9437371Y-12029357D01*
X9418324Y-12038881D01*
X9389752Y-12038881D01*
X9570705Y-12038881D02*
X9551657Y-12029357D01*
X9542133Y-12010310D01*
X9542133Y-11838881D01*
X9723086Y-12029357D02*
X9704038Y-12038881D01*
X9665943Y-12038881D01*
X9646895Y-12029357D01*
X9637371Y-12010310D01*
X9637371Y-11934119D01*
X9646895Y-11915072D01*
X9665943Y-11905548D01*
X9704038Y-11905548D01*
X9723086Y-11915072D01*
X9732610Y-11934119D01*
X9732610Y-11953167D01*
X9637371Y-11972215D01*
X9808800Y-12029357D02*
X9827848Y-12038881D01*
X9865943Y-12038881D01*
X9884990Y-12029357D01*
X9894514Y-12010310D01*
X9894514Y-12000786D01*
X9884990Y-11981738D01*
X9865943Y-11972215D01*
X9837371Y-11972215D01*
X9818324Y-11962691D01*
X9808800Y-11943643D01*
X9808800Y-11934119D01*
X9818324Y-11915072D01*
X9837371Y-11905548D01*
X9865943Y-11905548D01*
X9884990Y-11915072D01*
X9961181Y-12115072D02*
X9970705Y-12105548D01*
X9989752Y-12076977D01*
X9999276Y-12057929D01*
X10008800Y-12029357D01*
X10018324Y-11981738D01*
X10018324Y-11943643D01*
X10008800Y-11896024D01*
X9999276Y-11867453D01*
X9989752Y-11848405D01*
X9970705Y-11819834D01*
X9961181Y-11810310D01*
D13*
X4998800Y-12212405D02*
G75*
G03*
X4998800Y-12212405I-40000J0D01*
G01*
D11*
X5294514Y-12102881D02*
X5313562Y-12102881D01*
X5332610Y-12112405D01*
X5342133Y-12121929D01*
X5351657Y-12140977D01*
X5361181Y-12179072D01*
X5361181Y-12226691D01*
X5351657Y-12264786D01*
X5342133Y-12283834D01*
X5332610Y-12293357D01*
X5313562Y-12302881D01*
X5294514Y-12302881D01*
X5275467Y-12293357D01*
X5265943Y-12283834D01*
X5256419Y-12264786D01*
X5246895Y-12226691D01*
X5246895Y-12179072D01*
X5256419Y-12140977D01*
X5265943Y-12121929D01*
X5275467Y-12112405D01*
X5294514Y-12102881D01*
X5446895Y-12283834D02*
X5456419Y-12293357D01*
X5446895Y-12302881D01*
X5437371Y-12293357D01*
X5446895Y-12283834D01*
X5446895Y-12302881D01*
X5570705Y-12188596D02*
X5551657Y-12179072D01*
X5542133Y-12169548D01*
X5532610Y-12150500D01*
X5532610Y-12140977D01*
X5542133Y-12121929D01*
X5551657Y-12112405D01*
X5570705Y-12102881D01*
X5608800Y-12102881D01*
X5627848Y-12112405D01*
X5637371Y-12121929D01*
X5646895Y-12140977D01*
X5646895Y-12150500D01*
X5637371Y-12169548D01*
X5627848Y-12179072D01*
X5608800Y-12188596D01*
X5570705Y-12188596D01*
X5551657Y-12198119D01*
X5542133Y-12207643D01*
X5532610Y-12226691D01*
X5532610Y-12264786D01*
X5542133Y-12283834D01*
X5551657Y-12293357D01*
X5570705Y-12302881D01*
X5608800Y-12302881D01*
X5627848Y-12293357D01*
X5637371Y-12283834D01*
X5646895Y-12264786D01*
X5646895Y-12226691D01*
X5637371Y-12207643D01*
X5627848Y-12198119D01*
X5608800Y-12188596D01*
X5770705Y-12102881D02*
X5789752Y-12102881D01*
X5808800Y-12112405D01*
X5818324Y-12121929D01*
X5827848Y-12140977D01*
X5837371Y-12179072D01*
X5837371Y-12226691D01*
X5827848Y-12264786D01*
X5818324Y-12283834D01*
X5808800Y-12293357D01*
X5789752Y-12302881D01*
X5770705Y-12302881D01*
X5751657Y-12293357D01*
X5742133Y-12283834D01*
X5732609Y-12264786D01*
X5723086Y-12226691D01*
X5723086Y-12179072D01*
X5732609Y-12140977D01*
X5742133Y-12121929D01*
X5751657Y-12112405D01*
X5770705Y-12102881D01*
X5961181Y-12102881D02*
X5980228Y-12102881D01*
X5999276Y-12112405D01*
X6008800Y-12121929D01*
X6018324Y-12140977D01*
X6027848Y-12179072D01*
X6027848Y-12226691D01*
X6018324Y-12264786D01*
X6008800Y-12283834D01*
X5999276Y-12293357D01*
X5980228Y-12302881D01*
X5961181Y-12302881D01*
X5942133Y-12293357D01*
X5932609Y-12283834D01*
X5923086Y-12264786D01*
X5913562Y-12226691D01*
X5913562Y-12179072D01*
X5923086Y-12140977D01*
X5932609Y-12121929D01*
X5942133Y-12112405D01*
X5961181Y-12102881D01*
X6113562Y-12302881D02*
X6113562Y-12169548D01*
X6113562Y-12188596D02*
X6123086Y-12179072D01*
X6142133Y-12169548D01*
X6170705Y-12169548D01*
X6189752Y-12179072D01*
X6199276Y-12198119D01*
X6199276Y-12302881D01*
X6199276Y-12198119D02*
X6208800Y-12179072D01*
X6227848Y-12169548D01*
X6256419Y-12169548D01*
X6275467Y-12179072D01*
X6284990Y-12198119D01*
X6284990Y-12302881D01*
X6380228Y-12302881D02*
X6380228Y-12169548D01*
X6380228Y-12188596D02*
X6389752Y-12179072D01*
X6408800Y-12169548D01*
X6437371Y-12169548D01*
X6456419Y-12179072D01*
X6465943Y-12198119D01*
X6465943Y-12302881D01*
X6465943Y-12198119D02*
X6475467Y-12179072D01*
X6494514Y-12169548D01*
X6523086Y-12169548D01*
X6542133Y-12179072D01*
X6551657Y-12198119D01*
X6551657Y-12302881D01*
X6942133Y-12093357D02*
X6770705Y-12350500D01*
X7199276Y-12102881D02*
X7218324Y-12102881D01*
X7237371Y-12112405D01*
X7246895Y-12121929D01*
X7256419Y-12140977D01*
X7265943Y-12179072D01*
X7265943Y-12226691D01*
X7256419Y-12264786D01*
X7246895Y-12283834D01*
X7237371Y-12293357D01*
X7218324Y-12302881D01*
X7199276Y-12302881D01*
X7180228Y-12293357D01*
X7170705Y-12283834D01*
X7161181Y-12264786D01*
X7151657Y-12226691D01*
X7151657Y-12179072D01*
X7161181Y-12140977D01*
X7170705Y-12121929D01*
X7180228Y-12112405D01*
X7199276Y-12102881D01*
X7351657Y-12283834D02*
X7361181Y-12293357D01*
X7351657Y-12302881D01*
X7342133Y-12293357D01*
X7351657Y-12283834D01*
X7351657Y-12302881D01*
X7484990Y-12102881D02*
X7504038Y-12102881D01*
X7523086Y-12112405D01*
X7532609Y-12121929D01*
X7542133Y-12140977D01*
X7551657Y-12179072D01*
X7551657Y-12226691D01*
X7542133Y-12264786D01*
X7532609Y-12283834D01*
X7523086Y-12293357D01*
X7504038Y-12302881D01*
X7484990Y-12302881D01*
X7465943Y-12293357D01*
X7456419Y-12283834D01*
X7446895Y-12264786D01*
X7437371Y-12226691D01*
X7437371Y-12179072D01*
X7446895Y-12140977D01*
X7456419Y-12121929D01*
X7465943Y-12112405D01*
X7484990Y-12102881D01*
X7618324Y-12102881D02*
X7742133Y-12102881D01*
X7675467Y-12179072D01*
X7704038Y-12179072D01*
X7723086Y-12188596D01*
X7732609Y-12198119D01*
X7742133Y-12217167D01*
X7742133Y-12264786D01*
X7732609Y-12283834D01*
X7723086Y-12293357D01*
X7704038Y-12302881D01*
X7646895Y-12302881D01*
X7627848Y-12293357D01*
X7618324Y-12283834D01*
X7932609Y-12302881D02*
X7818324Y-12302881D01*
X7875467Y-12302881D02*
X7875467Y-12102881D01*
X7856419Y-12131453D01*
X7837371Y-12150500D01*
X7818324Y-12160024D01*
X8113562Y-12102881D02*
X8018324Y-12102881D01*
X8008800Y-12198119D01*
X8018324Y-12188596D01*
X8037371Y-12179072D01*
X8084990Y-12179072D01*
X8104038Y-12188596D01*
X8113562Y-12198119D01*
X8123086Y-12217167D01*
X8123086Y-12264786D01*
X8113562Y-12283834D01*
X8104038Y-12293357D01*
X8084990Y-12302881D01*
X8037371Y-12302881D01*
X8018324Y-12293357D01*
X8008800Y-12283834D01*
X8199276Y-12102881D02*
X8199276Y-12140977D01*
X8275467Y-12102881D02*
X8275467Y-12140977D01*
X8570705Y-12379072D02*
X8561181Y-12369548D01*
X8542133Y-12340977D01*
X8532610Y-12321929D01*
X8523086Y-12293357D01*
X8513562Y-12245738D01*
X8513562Y-12207643D01*
X8523086Y-12160024D01*
X8532610Y-12131453D01*
X8542133Y-12112405D01*
X8561181Y-12083834D01*
X8570705Y-12074310D01*
X8656419Y-12302881D02*
X8694514Y-12302881D01*
X8713562Y-12293357D01*
X8723086Y-12283834D01*
X8742133Y-12255262D01*
X8751657Y-12217167D01*
X8751657Y-12140977D01*
X8742133Y-12121929D01*
X8732610Y-12112405D01*
X8713562Y-12102881D01*
X8675467Y-12102881D01*
X8656419Y-12112405D01*
X8646895Y-12121929D01*
X8637371Y-12140977D01*
X8637371Y-12188596D01*
X8646895Y-12207643D01*
X8656419Y-12217167D01*
X8675467Y-12226691D01*
X8713562Y-12226691D01*
X8732610Y-12217167D01*
X8742133Y-12207643D01*
X8751657Y-12188596D01*
X8923086Y-12102881D02*
X8884990Y-12102881D01*
X8865943Y-12112405D01*
X8856419Y-12121929D01*
X8837371Y-12150500D01*
X8827848Y-12188596D01*
X8827848Y-12264786D01*
X8837371Y-12283834D01*
X8846895Y-12293357D01*
X8865943Y-12302881D01*
X8904038Y-12302881D01*
X8923086Y-12293357D01*
X8932610Y-12283834D01*
X8942133Y-12264786D01*
X8942133Y-12217167D01*
X8932610Y-12198119D01*
X8923086Y-12188596D01*
X8904038Y-12179072D01*
X8865943Y-12179072D01*
X8846895Y-12188596D01*
X8837371Y-12198119D01*
X8827848Y-12217167D01*
X9180229Y-12302881D02*
X9180229Y-12102881D01*
X9265943Y-12302881D02*
X9265943Y-12198119D01*
X9256419Y-12179072D01*
X9237371Y-12169548D01*
X9208800Y-12169548D01*
X9189752Y-12179072D01*
X9180229Y-12188596D01*
X9389752Y-12302881D02*
X9370705Y-12293357D01*
X9361181Y-12283834D01*
X9351657Y-12264786D01*
X9351657Y-12207643D01*
X9361181Y-12188596D01*
X9370705Y-12179072D01*
X9389752Y-12169548D01*
X9418324Y-12169548D01*
X9437371Y-12179072D01*
X9446895Y-12188596D01*
X9456419Y-12207643D01*
X9456419Y-12264786D01*
X9446895Y-12283834D01*
X9437371Y-12293357D01*
X9418324Y-12302881D01*
X9389752Y-12302881D01*
X9570705Y-12302881D02*
X9551657Y-12293357D01*
X9542133Y-12274310D01*
X9542133Y-12102881D01*
X9723086Y-12293357D02*
X9704038Y-12302881D01*
X9665943Y-12302881D01*
X9646895Y-12293357D01*
X9637371Y-12274310D01*
X9637371Y-12198119D01*
X9646895Y-12179072D01*
X9665943Y-12169548D01*
X9704038Y-12169548D01*
X9723086Y-12179072D01*
X9732610Y-12198119D01*
X9732610Y-12217167D01*
X9637371Y-12236215D01*
X9808800Y-12293357D02*
X9827848Y-12302881D01*
X9865943Y-12302881D01*
X9884990Y-12293357D01*
X9894514Y-12274310D01*
X9894514Y-12264786D01*
X9884990Y-12245738D01*
X9865943Y-12236215D01*
X9837371Y-12236215D01*
X9818324Y-12226691D01*
X9808800Y-12207643D01*
X9808800Y-12198119D01*
X9818324Y-12179072D01*
X9837371Y-12169548D01*
X9865943Y-12169548D01*
X9884990Y-12179072D01*
X9961181Y-12379072D02*
X9970705Y-12369548D01*
X9989752Y-12340977D01*
X9999276Y-12321929D01*
X10008800Y-12293357D01*
X10018324Y-12245738D01*
X10018324Y-12207643D01*
X10008800Y-12160024D01*
X9999276Y-12131453D01*
X9989752Y-12112405D01*
X9970705Y-12083834D01*
X9961181Y-12074310D01*
D14*
X4948800Y-12426405D02*
X4948800Y-12526405D01*
X4898800Y-12476405D02*
X4998800Y-12476405D01*
D11*
X5361181Y-12566881D02*
X5246895Y-12566881D01*
X5304038Y-12566881D02*
X5304038Y-12366881D01*
X5284990Y-12395453D01*
X5265943Y-12414500D01*
X5246895Y-12424024D01*
X5446895Y-12547834D02*
X5456419Y-12557357D01*
X5446895Y-12566881D01*
X5437371Y-12557357D01*
X5446895Y-12547834D01*
X5446895Y-12566881D01*
X5580229Y-12366881D02*
X5599276Y-12366881D01*
X5618324Y-12376405D01*
X5627848Y-12385929D01*
X5637371Y-12404977D01*
X5646895Y-12443072D01*
X5646895Y-12490691D01*
X5637371Y-12528786D01*
X5627848Y-12547834D01*
X5618324Y-12557357D01*
X5599276Y-12566881D01*
X5580229Y-12566881D01*
X5561181Y-12557357D01*
X5551657Y-12547834D01*
X5542133Y-12528786D01*
X5532610Y-12490691D01*
X5532610Y-12443072D01*
X5542133Y-12404977D01*
X5551657Y-12385929D01*
X5561181Y-12376405D01*
X5580229Y-12366881D01*
X5770705Y-12366881D02*
X5789752Y-12366881D01*
X5808800Y-12376405D01*
X5818324Y-12385929D01*
X5827848Y-12404977D01*
X5837371Y-12443072D01*
X5837371Y-12490691D01*
X5827848Y-12528786D01*
X5818324Y-12547834D01*
X5808800Y-12557357D01*
X5789752Y-12566881D01*
X5770705Y-12566881D01*
X5751657Y-12557357D01*
X5742133Y-12547834D01*
X5732609Y-12528786D01*
X5723086Y-12490691D01*
X5723086Y-12443072D01*
X5732609Y-12404977D01*
X5742133Y-12385929D01*
X5751657Y-12376405D01*
X5770705Y-12366881D01*
X5961181Y-12366881D02*
X5980228Y-12366881D01*
X5999276Y-12376405D01*
X6008800Y-12385929D01*
X6018324Y-12404977D01*
X6027848Y-12443072D01*
X6027848Y-12490691D01*
X6018324Y-12528786D01*
X6008800Y-12547834D01*
X5999276Y-12557357D01*
X5980228Y-12566881D01*
X5961181Y-12566881D01*
X5942133Y-12557357D01*
X5932609Y-12547834D01*
X5923086Y-12528786D01*
X5913562Y-12490691D01*
X5913562Y-12443072D01*
X5923086Y-12404977D01*
X5932609Y-12385929D01*
X5942133Y-12376405D01*
X5961181Y-12366881D01*
X6113562Y-12566881D02*
X6113562Y-12433548D01*
X6113562Y-12452596D02*
X6123086Y-12443072D01*
X6142133Y-12433548D01*
X6170705Y-12433548D01*
X6189752Y-12443072D01*
X6199276Y-12462119D01*
X6199276Y-12566881D01*
X6199276Y-12462119D02*
X6208800Y-12443072D01*
X6227848Y-12433548D01*
X6256419Y-12433548D01*
X6275467Y-12443072D01*
X6284990Y-12462119D01*
X6284990Y-12566881D01*
X6380228Y-12566881D02*
X6380228Y-12433548D01*
X6380228Y-12452596D02*
X6389752Y-12443072D01*
X6408800Y-12433548D01*
X6437371Y-12433548D01*
X6456419Y-12443072D01*
X6465943Y-12462119D01*
X6465943Y-12566881D01*
X6465943Y-12462119D02*
X6475467Y-12443072D01*
X6494514Y-12433548D01*
X6523086Y-12433548D01*
X6542133Y-12443072D01*
X6551657Y-12462119D01*
X6551657Y-12566881D01*
X6942133Y-12357357D02*
X6770705Y-12614500D01*
X7199276Y-12366881D02*
X7218324Y-12366881D01*
X7237371Y-12376405D01*
X7246895Y-12385929D01*
X7256419Y-12404977D01*
X7265943Y-12443072D01*
X7265943Y-12490691D01*
X7256419Y-12528786D01*
X7246895Y-12547834D01*
X7237371Y-12557357D01*
X7218324Y-12566881D01*
X7199276Y-12566881D01*
X7180228Y-12557357D01*
X7170705Y-12547834D01*
X7161181Y-12528786D01*
X7151657Y-12490691D01*
X7151657Y-12443072D01*
X7161181Y-12404977D01*
X7170705Y-12385929D01*
X7180228Y-12376405D01*
X7199276Y-12366881D01*
X7351657Y-12547834D02*
X7361181Y-12557357D01*
X7351657Y-12566881D01*
X7342133Y-12557357D01*
X7351657Y-12547834D01*
X7351657Y-12566881D01*
X7484990Y-12366881D02*
X7504038Y-12366881D01*
X7523086Y-12376405D01*
X7532609Y-12385929D01*
X7542133Y-12404977D01*
X7551657Y-12443072D01*
X7551657Y-12490691D01*
X7542133Y-12528786D01*
X7532609Y-12547834D01*
X7523086Y-12557357D01*
X7504038Y-12566881D01*
X7484990Y-12566881D01*
X7465943Y-12557357D01*
X7456419Y-12547834D01*
X7446895Y-12528786D01*
X7437371Y-12490691D01*
X7437371Y-12443072D01*
X7446895Y-12404977D01*
X7456419Y-12385929D01*
X7465943Y-12376405D01*
X7484990Y-12366881D01*
X7618324Y-12366881D02*
X7742133Y-12366881D01*
X7675467Y-12443072D01*
X7704038Y-12443072D01*
X7723086Y-12452596D01*
X7732609Y-12462119D01*
X7742133Y-12481167D01*
X7742133Y-12528786D01*
X7732609Y-12547834D01*
X7723086Y-12557357D01*
X7704038Y-12566881D01*
X7646895Y-12566881D01*
X7627848Y-12557357D01*
X7618324Y-12547834D01*
X7837371Y-12566881D02*
X7875467Y-12566881D01*
X7894514Y-12557357D01*
X7904038Y-12547834D01*
X7923086Y-12519262D01*
X7932609Y-12481167D01*
X7932609Y-12404977D01*
X7923086Y-12385929D01*
X7913562Y-12376405D01*
X7894514Y-12366881D01*
X7856419Y-12366881D01*
X7837371Y-12376405D01*
X7827848Y-12385929D01*
X7818324Y-12404977D01*
X7818324Y-12452596D01*
X7827848Y-12471643D01*
X7837371Y-12481167D01*
X7856419Y-12490691D01*
X7894514Y-12490691D01*
X7913562Y-12481167D01*
X7923086Y-12471643D01*
X7932609Y-12452596D01*
X8104038Y-12433548D02*
X8104038Y-12566881D01*
X8056419Y-12357357D02*
X8008800Y-12500215D01*
X8132609Y-12500215D01*
X8199276Y-12366881D02*
X8199276Y-12404977D01*
X8275467Y-12366881D02*
X8275467Y-12404977D01*
X8570705Y-12643072D02*
X8561181Y-12633548D01*
X8542133Y-12604977D01*
X8532610Y-12585929D01*
X8523086Y-12557357D01*
X8513562Y-12509738D01*
X8513562Y-12471643D01*
X8523086Y-12424024D01*
X8532610Y-12395453D01*
X8542133Y-12376405D01*
X8561181Y-12347834D01*
X8570705Y-12338310D01*
X8627848Y-12366881D02*
X8751657Y-12366881D01*
X8684990Y-12443072D01*
X8713562Y-12443072D01*
X8732610Y-12452596D01*
X8742133Y-12462119D01*
X8751657Y-12481167D01*
X8751657Y-12528786D01*
X8742133Y-12547834D01*
X8732610Y-12557357D01*
X8713562Y-12566881D01*
X8656419Y-12566881D01*
X8637371Y-12557357D01*
X8627848Y-12547834D01*
X8923086Y-12366881D02*
X8884990Y-12366881D01*
X8865943Y-12376405D01*
X8856419Y-12385929D01*
X8837371Y-12414500D01*
X8827848Y-12452596D01*
X8827848Y-12528786D01*
X8837371Y-12547834D01*
X8846895Y-12557357D01*
X8865943Y-12566881D01*
X8904038Y-12566881D01*
X8923086Y-12557357D01*
X8932610Y-12547834D01*
X8942133Y-12528786D01*
X8942133Y-12481167D01*
X8932610Y-12462119D01*
X8923086Y-12452596D01*
X8904038Y-12443072D01*
X8865943Y-12443072D01*
X8846895Y-12452596D01*
X8837371Y-12462119D01*
X8827848Y-12481167D01*
X9180229Y-12566881D02*
X9180229Y-12366881D01*
X9265943Y-12566881D02*
X9265943Y-12462119D01*
X9256419Y-12443072D01*
X9237371Y-12433548D01*
X9208800Y-12433548D01*
X9189752Y-12443072D01*
X9180229Y-12452596D01*
X9389752Y-12566881D02*
X9370705Y-12557357D01*
X9361181Y-12547834D01*
X9351657Y-12528786D01*
X9351657Y-12471643D01*
X9361181Y-12452596D01*
X9370705Y-12443072D01*
X9389752Y-12433548D01*
X9418324Y-12433548D01*
X9437371Y-12443072D01*
X9446895Y-12452596D01*
X9456419Y-12471643D01*
X9456419Y-12528786D01*
X9446895Y-12547834D01*
X9437371Y-12557357D01*
X9418324Y-12566881D01*
X9389752Y-12566881D01*
X9570705Y-12566881D02*
X9551657Y-12557357D01*
X9542133Y-12538310D01*
X9542133Y-12366881D01*
X9723086Y-12557357D02*
X9704038Y-12566881D01*
X9665943Y-12566881D01*
X9646895Y-12557357D01*
X9637371Y-12538310D01*
X9637371Y-12462119D01*
X9646895Y-12443072D01*
X9665943Y-12433548D01*
X9704038Y-12433548D01*
X9723086Y-12443072D01*
X9732610Y-12462119D01*
X9732610Y-12481167D01*
X9637371Y-12500215D01*
X9808800Y-12557357D02*
X9827848Y-12566881D01*
X9865943Y-12566881D01*
X9884990Y-12557357D01*
X9894514Y-12538310D01*
X9894514Y-12528786D01*
X9884990Y-12509738D01*
X9865943Y-12500215D01*
X9837371Y-12500215D01*
X9818324Y-12490691D01*
X9808800Y-12471643D01*
X9808800Y-12462119D01*
X9818324Y-12443072D01*
X9837371Y-12433548D01*
X9865943Y-12433548D01*
X9884990Y-12443072D01*
X9961181Y-12643072D02*
X9970705Y-12633548D01*
X9989752Y-12604977D01*
X9999276Y-12585929D01*
X10008800Y-12557357D01*
X10018324Y-12509738D01*
X10018324Y-12471643D01*
X10008800Y-12424024D01*
X9999276Y-12395453D01*
X9989752Y-12376405D01*
X9970705Y-12347834D01*
X9961181Y-12338310D01*
D15*
X4981227Y-12782832D02*
X4981227Y-12697978D01*
X4896373Y-12697978D01*
X4896373Y-12782832D01*
X4981227Y-12782832D01*
D11*
X5361181Y-12830881D02*
X5246895Y-12830881D01*
X5304038Y-12830881D02*
X5304038Y-12630881D01*
X5284990Y-12659453D01*
X5265943Y-12678500D01*
X5246895Y-12688024D01*
X5446895Y-12811834D02*
X5456419Y-12821357D01*
X5446895Y-12830881D01*
X5437371Y-12821357D01*
X5446895Y-12811834D01*
X5446895Y-12830881D01*
X5532610Y-12649929D02*
X5542133Y-12640405D01*
X5561181Y-12630881D01*
X5608800Y-12630881D01*
X5627848Y-12640405D01*
X5637371Y-12649929D01*
X5646895Y-12668977D01*
X5646895Y-12688024D01*
X5637371Y-12716596D01*
X5523086Y-12830881D01*
X5646895Y-12830881D01*
X5770705Y-12630881D02*
X5789752Y-12630881D01*
X5808800Y-12640405D01*
X5818324Y-12649929D01*
X5827848Y-12668977D01*
X5837371Y-12707072D01*
X5837371Y-12754691D01*
X5827848Y-12792786D01*
X5818324Y-12811834D01*
X5808800Y-12821357D01*
X5789752Y-12830881D01*
X5770705Y-12830881D01*
X5751657Y-12821357D01*
X5742133Y-12811834D01*
X5732609Y-12792786D01*
X5723086Y-12754691D01*
X5723086Y-12707072D01*
X5732609Y-12668977D01*
X5742133Y-12649929D01*
X5751657Y-12640405D01*
X5770705Y-12630881D01*
X5961181Y-12630881D02*
X5980228Y-12630881D01*
X5999276Y-12640405D01*
X6008800Y-12649929D01*
X6018324Y-12668977D01*
X6027848Y-12707072D01*
X6027848Y-12754691D01*
X6018324Y-12792786D01*
X6008800Y-12811834D01*
X5999276Y-12821357D01*
X5980228Y-12830881D01*
X5961181Y-12830881D01*
X5942133Y-12821357D01*
X5932609Y-12811834D01*
X5923086Y-12792786D01*
X5913562Y-12754691D01*
X5913562Y-12707072D01*
X5923086Y-12668977D01*
X5932609Y-12649929D01*
X5942133Y-12640405D01*
X5961181Y-12630881D01*
X6113562Y-12830881D02*
X6113562Y-12697548D01*
X6113562Y-12716596D02*
X6123086Y-12707072D01*
X6142133Y-12697548D01*
X6170705Y-12697548D01*
X6189752Y-12707072D01*
X6199276Y-12726119D01*
X6199276Y-12830881D01*
X6199276Y-12726119D02*
X6208800Y-12707072D01*
X6227848Y-12697548D01*
X6256419Y-12697548D01*
X6275467Y-12707072D01*
X6284990Y-12726119D01*
X6284990Y-12830881D01*
X6380228Y-12830881D02*
X6380228Y-12697548D01*
X6380228Y-12716596D02*
X6389752Y-12707072D01*
X6408800Y-12697548D01*
X6437371Y-12697548D01*
X6456419Y-12707072D01*
X6465943Y-12726119D01*
X6465943Y-12830881D01*
X6465943Y-12726119D02*
X6475467Y-12707072D01*
X6494514Y-12697548D01*
X6523086Y-12697548D01*
X6542133Y-12707072D01*
X6551657Y-12726119D01*
X6551657Y-12830881D01*
X6942133Y-12621357D02*
X6770705Y-12878500D01*
X7199276Y-12630881D02*
X7218324Y-12630881D01*
X7237371Y-12640405D01*
X7246895Y-12649929D01*
X7256419Y-12668977D01*
X7265943Y-12707072D01*
X7265943Y-12754691D01*
X7256419Y-12792786D01*
X7246895Y-12811834D01*
X7237371Y-12821357D01*
X7218324Y-12830881D01*
X7199276Y-12830881D01*
X7180228Y-12821357D01*
X7170705Y-12811834D01*
X7161181Y-12792786D01*
X7151657Y-12754691D01*
X7151657Y-12707072D01*
X7161181Y-12668977D01*
X7170705Y-12649929D01*
X7180228Y-12640405D01*
X7199276Y-12630881D01*
X7351657Y-12811834D02*
X7361181Y-12821357D01*
X7351657Y-12830881D01*
X7342133Y-12821357D01*
X7351657Y-12811834D01*
X7351657Y-12830881D01*
X7484990Y-12630881D02*
X7504038Y-12630881D01*
X7523086Y-12640405D01*
X7532609Y-12649929D01*
X7542133Y-12668977D01*
X7551657Y-12707072D01*
X7551657Y-12754691D01*
X7542133Y-12792786D01*
X7532609Y-12811834D01*
X7523086Y-12821357D01*
X7504038Y-12830881D01*
X7484990Y-12830881D01*
X7465943Y-12821357D01*
X7456419Y-12811834D01*
X7446895Y-12792786D01*
X7437371Y-12754691D01*
X7437371Y-12707072D01*
X7446895Y-12668977D01*
X7456419Y-12649929D01*
X7465943Y-12640405D01*
X7484990Y-12630881D01*
X7723086Y-12697548D02*
X7723086Y-12830881D01*
X7675467Y-12621357D02*
X7627848Y-12764215D01*
X7751657Y-12764215D01*
X7808800Y-12630881D02*
X7942133Y-12630881D01*
X7856419Y-12830881D01*
X8008800Y-12649929D02*
X8018324Y-12640405D01*
X8037371Y-12630881D01*
X8084990Y-12630881D01*
X8104038Y-12640405D01*
X8113562Y-12649929D01*
X8123086Y-12668977D01*
X8123086Y-12688024D01*
X8113562Y-12716596D01*
X7999276Y-12830881D01*
X8123086Y-12830881D01*
X8199276Y-12630881D02*
X8199276Y-12668977D01*
X8275467Y-12630881D02*
X8275467Y-12668977D01*
X8570705Y-12907072D02*
X8561181Y-12897548D01*
X8542133Y-12868977D01*
X8532610Y-12849929D01*
X8523086Y-12821357D01*
X8513562Y-12773738D01*
X8513562Y-12735643D01*
X8523086Y-12688024D01*
X8532610Y-12659453D01*
X8542133Y-12640405D01*
X8561181Y-12611834D01*
X8570705Y-12602310D01*
X8732610Y-12630881D02*
X8694514Y-12630881D01*
X8675467Y-12640405D01*
X8665943Y-12649929D01*
X8646895Y-12678500D01*
X8637371Y-12716596D01*
X8637371Y-12792786D01*
X8646895Y-12811834D01*
X8656419Y-12821357D01*
X8675467Y-12830881D01*
X8713562Y-12830881D01*
X8732610Y-12821357D01*
X8742133Y-12811834D01*
X8751657Y-12792786D01*
X8751657Y-12745167D01*
X8742133Y-12726119D01*
X8732610Y-12716596D01*
X8713562Y-12707072D01*
X8675467Y-12707072D01*
X8656419Y-12716596D01*
X8646895Y-12726119D01*
X8637371Y-12745167D01*
X8989752Y-12830881D02*
X8989752Y-12630881D01*
X9075467Y-12830881D02*
X9075467Y-12726119D01*
X9065943Y-12707072D01*
X9046895Y-12697548D01*
X9018324Y-12697548D01*
X8999276Y-12707072D01*
X8989752Y-12716596D01*
X9199276Y-12830881D02*
X9180229Y-12821357D01*
X9170705Y-12811834D01*
X9161181Y-12792786D01*
X9161181Y-12735643D01*
X9170705Y-12716596D01*
X9180229Y-12707072D01*
X9199276Y-12697548D01*
X9227848Y-12697548D01*
X9246895Y-12707072D01*
X9256419Y-12716596D01*
X9265943Y-12735643D01*
X9265943Y-12792786D01*
X9256419Y-12811834D01*
X9246895Y-12821357D01*
X9227848Y-12830881D01*
X9199276Y-12830881D01*
X9380229Y-12830881D02*
X9361181Y-12821357D01*
X9351657Y-12802310D01*
X9351657Y-12630881D01*
X9532610Y-12821357D02*
X9513562Y-12830881D01*
X9475467Y-12830881D01*
X9456419Y-12821357D01*
X9446895Y-12802310D01*
X9446895Y-12726119D01*
X9456419Y-12707072D01*
X9475467Y-12697548D01*
X9513562Y-12697548D01*
X9532610Y-12707072D01*
X9542133Y-12726119D01*
X9542133Y-12745167D01*
X9446895Y-12764215D01*
X9618324Y-12821357D02*
X9637371Y-12830881D01*
X9675467Y-12830881D01*
X9694514Y-12821357D01*
X9704038Y-12802310D01*
X9704038Y-12792786D01*
X9694514Y-12773738D01*
X9675467Y-12764215D01*
X9646895Y-12764215D01*
X9627848Y-12754691D01*
X9618324Y-12735643D01*
X9618324Y-12726119D01*
X9627848Y-12707072D01*
X9646895Y-12697548D01*
X9675467Y-12697548D01*
X9694514Y-12707072D01*
X9770705Y-12907072D02*
X9780229Y-12897548D01*
X9799276Y-12868977D01*
X9808800Y-12849929D01*
X9818324Y-12821357D01*
X9827848Y-12773738D01*
X9827848Y-12735643D01*
X9818324Y-12688024D01*
X9808800Y-12659453D01*
X9799276Y-12640405D01*
X9780229Y-12611834D01*
X9770705Y-12602310D01*
M02*
