%TF.GenerationSoftware,KiCad,Pcbnew,(6.0.0)*%
%TF.CreationDate,2022-03-13T19:16:45-04:00*%
%TF.ProjectId,esp23 i3 heat thermostat,65737032-3320-4693-9320-686561742074,rev?*%
%TF.SameCoordinates,Original*%
%TF.FileFunction,Paste,Top*%
%TF.FilePolarity,Positive*%
%FSLAX46Y46*%
G04 Gerber Fmt 4.6, Leading zero omitted, Abs format (unit mm)*
G04 Created by KiCad (PCBNEW (6.0.0)) date 2022-03-13 19:16:45*
%MOMM*%
%LPD*%
G01*
G04 APERTURE LIST*
G04 Aperture macros list*
%AMRoundRect*
0 Rectangle with rounded corners*
0 $1 Rounding radius*
0 $2 $3 $4 $5 $6 $7 $8 $9 X,Y pos of 4 corners*
0 Add a 4 corners polygon primitive as box body*
4,1,4,$2,$3,$4,$5,$6,$7,$8,$9,$2,$3,0*
0 Add four circle primitives for the rounded corners*
1,1,$1+$1,$2,$3*
1,1,$1+$1,$4,$5*
1,1,$1+$1,$6,$7*
1,1,$1+$1,$8,$9*
0 Add four rect primitives between the rounded corners*
20,1,$1+$1,$2,$3,$4,$5,0*
20,1,$1+$1,$4,$5,$6,$7,0*
20,1,$1+$1,$6,$7,$8,$9,0*
20,1,$1+$1,$8,$9,$2,$3,0*%
G04 Aperture macros list end*
%ADD10RoundRect,0.200000X0.275000X-0.200000X0.275000X0.200000X-0.275000X0.200000X-0.275000X-0.200000X0*%
%ADD11RoundRect,0.225000X-0.250000X0.225000X-0.250000X-0.225000X0.250000X-0.225000X0.250000X0.225000X0*%
%ADD12RoundRect,0.200000X0.200000X0.275000X-0.200000X0.275000X-0.200000X-0.275000X0.200000X-0.275000X0*%
%ADD13RoundRect,0.200000X-0.200000X-0.275000X0.200000X-0.275000X0.200000X0.275000X-0.200000X0.275000X0*%
%ADD14RoundRect,0.200000X-0.275000X0.200000X-0.275000X-0.200000X0.275000X-0.200000X0.275000X0.200000X0*%
%ADD15RoundRect,0.225000X0.250000X-0.225000X0.250000X0.225000X-0.250000X0.225000X-0.250000X-0.225000X0*%
%ADD16RoundRect,0.218750X0.218750X0.256250X-0.218750X0.256250X-0.218750X-0.256250X0.218750X-0.256250X0*%
%ADD17R,1.500000X2.000000*%
%ADD18R,3.800000X2.000000*%
%ADD19RoundRect,0.218750X-0.218750X-0.256250X0.218750X-0.256250X0.218750X0.256250X-0.218750X0.256250X0*%
%ADD20RoundRect,0.137500X-0.862500X-0.137500X0.862500X-0.137500X0.862500X0.137500X-0.862500X0.137500X0*%
G04 APERTURE END LIST*
D10*
%TO.C,R15*%
X135890000Y-111823000D03*
X135890000Y-110173000D03*
%TD*%
D11*
%TO.C,C9*%
X113538000Y-74663000D03*
X113538000Y-76213000D03*
%TD*%
%TO.C,C8*%
X129540000Y-67805000D03*
X129540000Y-69355000D03*
%TD*%
D12*
%TO.C,R18*%
X153987000Y-92456000D03*
X152337000Y-92456000D03*
%TD*%
D13*
%TO.C,R20*%
X126937000Y-87376000D03*
X128587000Y-87376000D03*
%TD*%
D14*
%TO.C,R1*%
X126492000Y-99759000D03*
X126492000Y-101409000D03*
%TD*%
D10*
%TO.C,R5*%
X138176000Y-83375000D03*
X138176000Y-81725000D03*
%TD*%
%TO.C,R16*%
X138684000Y-111823000D03*
X138684000Y-110173000D03*
%TD*%
%TO.C,R17*%
X141478000Y-111823000D03*
X141478000Y-110173000D03*
%TD*%
D12*
%TO.C,R4*%
X129603000Y-72136000D03*
X127953000Y-72136000D03*
%TD*%
D10*
%TO.C,R9*%
X148336000Y-111823000D03*
X148336000Y-110173000D03*
%TD*%
D13*
%TO.C,R14*%
X132779000Y-90678000D03*
X134429000Y-90678000D03*
%TD*%
D15*
%TO.C,C3*%
X150368000Y-105931000D03*
X150368000Y-104381000D03*
%TD*%
D16*
%TO.C,D8*%
X128537500Y-104550000D03*
X126962500Y-104550000D03*
%TD*%
D11*
%TO.C,C1*%
X124968000Y-99809000D03*
X124968000Y-101359000D03*
%TD*%
D17*
%TO.C,U5*%
X153656000Y-100940000D03*
X155956000Y-100940000D03*
D18*
X155956000Y-94640000D03*
D17*
X158256000Y-100940000D03*
%TD*%
D12*
%TO.C,R19*%
X128587000Y-106172000D03*
X126937000Y-106172000D03*
%TD*%
D11*
%TO.C,C11*%
X123952000Y-88379000D03*
X123952000Y-89929000D03*
%TD*%
D19*
%TO.C,D10*%
X126962500Y-92550000D03*
X128537500Y-92550000D03*
%TD*%
D13*
%TO.C,R21*%
X126937000Y-94234000D03*
X128587000Y-94234000D03*
%TD*%
D20*
%TO.C,U1*%
X113460000Y-93599000D03*
X113460000Y-94869000D03*
X113460000Y-96139000D03*
X113460000Y-97409000D03*
X113460000Y-98679000D03*
X113460000Y-99949000D03*
X113460000Y-101219000D03*
X113460000Y-102489000D03*
X113460000Y-103759000D03*
X113460000Y-105029000D03*
X113460000Y-106299000D03*
X113460000Y-107569000D03*
X122760000Y-107569000D03*
X122760000Y-106299000D03*
X122760000Y-105029000D03*
X122760000Y-103759000D03*
X122760000Y-102489000D03*
X122760000Y-101219000D03*
X122760000Y-99949000D03*
X122760000Y-98679000D03*
X122760000Y-97409000D03*
X122760000Y-96139000D03*
X122760000Y-94869000D03*
X122760000Y-93599000D03*
%TD*%
D10*
%TO.C,R6*%
X143510000Y-67501000D03*
X143510000Y-69151000D03*
%TD*%
D11*
%TO.C,C10*%
X113538000Y-60947000D03*
X113538000Y-62497000D03*
%TD*%
D12*
%TO.C,R8*%
X135191000Y-93472000D03*
X133541000Y-93472000D03*
%TD*%
D10*
%TO.C,R7*%
X143256000Y-77787000D03*
X143256000Y-76137000D03*
%TD*%
D19*
%TO.C,D9*%
X126945000Y-85840000D03*
X128520000Y-85840000D03*
%TD*%
M02*
